<?xml version="1.0" encoding="utf-8" standalone="no"?>
<!DOCTYPE svg PUBLIC "-//W3C//DTD SVG 1.1//EN"
  "http://www.w3.org/Graphics/SVG/1.1/DTD/svg11.dtd">
<svg xmlns:xlink="http://www.w3.org/1999/xlink" width="568.8pt" height="410.4pt" viewBox="0 0 568.8 410.4" xmlns="http://www.w3.org/2000/svg" version="1.1">
 <metadata>
  <rdf:RDF xmlns:dc="http://purl.org/dc/elements/1.1/" xmlns:cc="http://creativecommons.org/ns#" xmlns:rdf="http://www.w3.org/1999/02/22-rdf-syntax-ns#">
   <cc:Work>
    <dc:type rdf:resource="http://purl.org/dc/dcmitype/StillImage"/>
    <dc:date>2026-03-29T14:51:56.264785</dc:date>
    <dc:format>image/svg+xml</dc:format>
    <dc:creator>
     <cc:Agent>
      <dc:title>Matplotlib v3.10.8, https://matplotlib.org/</dc:title>
     </cc:Agent>
    </dc:creator>
   </cc:Work>
  </rdf:RDF>
 </metadata>
 <defs>
  <style type="text/css">*{stroke-linejoin: round; stroke-linecap: butt}</style>
 </defs>
 <g id="figure_1">
  <g id="patch_1">
   <path d="M 0 410.4 
L 568.8 410.4 
L 568.8 0 
L 0 0 
z
" style="fill: #ffffff"/>
  </g>
  <g id="axes_1">
   <g id="patch_2">
    <path d="M 62.64 92.34 
L 506.16 92.34 
Q 514.476 92.34 514.476 86.4 
L 514.476 34.92 
Q 514.476 28.98 506.16 28.98 
L 62.64 28.98 
Q 54.324 28.98 54.324 34.92 
L 54.324 86.4 
Q 54.324 92.34 62.64 92.34 
z
" clip-path="url(#p8e85f619a7)" style="fill: #4a7fb5; opacity: 0.9; stroke: #ffffff; stroke-width: 1.5; stroke-linejoin: miter"/>
   </g>
   <g id="patch_3">
    <path d="M 62.64 171.54 
L 506.16 171.54 
Q 514.476 171.54 514.476 165.6 
L 514.476 118.08 
Q 514.476 112.14 506.16 112.14 
L 62.64 112.14 
Q 54.324 112.14 54.324 118.08 
L 54.324 165.6 
Q 54.324 171.54 62.64 171.54 
z
" clip-path="url(#p8e85f619a7)" style="fill: #7fb174; opacity: 0.9; stroke: #ffffff; stroke-width: 1.5; stroke-linejoin: miter"/>
   </g>
   <g id="patch_4">
    <path d="M 62.64 385.38 
L 506.16 385.38 
Q 514.476 385.38 514.476 379.44 
L 514.476 197.28 
Q 514.476 191.34 506.16 191.34 
L 62.64 191.34 
Q 54.324 191.34 54.324 197.28 
L 54.324 379.44 
Q 54.324 385.38 62.64 385.38 
z
" clip-path="url(#p8e85f619a7)" style="fill: #e8a849; opacity: 0.15; stroke: #ffffff; stroke-width: 1.5; stroke-linejoin: miter"/>
   </g>
   <g id="patch_5">
    <path d="M 84.816 268.56 
L 483.984 268.56 
Q 489.528 268.56 489.528 264.6 
L 489.528 238.86 
Q 489.528 234.9 483.984 234.9 
L 84.816 234.9 
Q 79.272 234.9 79.272 238.86 
L 79.272 264.6 
Q 79.272 268.56 84.816 268.56 
z
" clip-path="url(#p8e85f619a7)" style="fill: #d4763a; opacity: 0.85; stroke: #ffffff; stroke-linejoin: miter"/>
   </g>
   <g id="patch_6">
    <path d="M 88.974 327.168 
L 180.45 327.168 
Q 184.8852 327.168 184.8852 324 
L 184.8852 284.4 
Q 184.8852 281.232 180.45 281.232 
L 88.974 281.232 
Q 84.5388 281.232 84.5388 284.4 
L 84.5388 324 
Q 84.5388 327.168 88.974 327.168 
z
" clip-path="url(#p8e85f619a7)" style="fill: #e8a849; opacity: 0.65; stroke: #ffffff; stroke-width: 1.5; stroke-linejoin: miter"/>
   </g>
   <g id="patch_7">
    <path d="M 188.766 327.168 
L 280.242 327.168 
Q 284.6772 327.168 284.6772 324 
L 284.6772 284.4 
Q 284.6772 281.232 280.242 281.232 
L 188.766 281.232 
Q 184.3308 281.232 184.3308 284.4 
L 184.3308 324 
Q 184.3308 327.168 188.766 327.168 
z
" clip-path="url(#p8e85f619a7)" style="fill: #e8a849; opacity: 0.65; stroke: #ffffff; stroke-width: 1.5; stroke-linejoin: miter"/>
   </g>
   <g id="patch_8">
    <path d="M 288.558 327.168 
L 380.034 327.168 
Q 384.4692 327.168 384.4692 324 
L 384.4692 284.4 
Q 384.4692 281.232 380.034 281.232 
L 288.558 281.232 
Q 284.1228 281.232 284.1228 284.4 
L 284.1228 324 
Q 284.1228 327.168 288.558 327.168 
z
" clip-path="url(#p8e85f619a7)" style="fill: #e8a849; opacity: 0.65; stroke: #ffffff; stroke-width: 1.5; stroke-linejoin: miter"/>
   </g>
   <g id="patch_9">
    <path d="M 388.35 327.168 
L 479.826 327.168 
Q 484.2612 327.168 484.2612 324 
L 484.2612 284.4 
Q 484.2612 281.232 479.826 281.232 
L 388.35 281.232 
Q 383.9148 281.232 383.9148 284.4 
L 383.9148 324 
Q 383.9148 327.168 388.35 327.168 
z
" clip-path="url(#p8e85f619a7)" style="fill: #e8a849; opacity: 0.65; stroke: #ffffff; stroke-width: 1.5; stroke-linejoin: miter"/>
   </g>
   <g id="text_1">
    <!-- Computation Layer -->
    <g style="fill: #ffffff" transform="translate(209.392812 54.568438) scale(0.14 -0.14)">
     <defs>
      <path id="DejaVuSans-Bold-43" d="M 4288 256 
Q 3956 84 3597 -3 
Q 3238 -91 2847 -91 
Q 1681 -91 1000 561 
Q 319 1213 319 2328 
Q 319 3447 1000 4098 
Q 1681 4750 2847 4750 
Q 3238 4750 3597 4662 
Q 3956 4575 4288 4403 
L 4288 3438 
Q 3953 3666 3628 3772 
Q 3303 3878 2944 3878 
Q 2300 3878 1931 3465 
Q 1563 3053 1563 2328 
Q 1563 1606 1931 1193 
Q 2300 781 2944 781 
Q 3303 781 3628 887 
Q 3953 994 4288 1222 
L 4288 256 
z
" transform="scale(0.015625)"/>
      <path id="DejaVuSans-Bold-6f" d="M 2203 2784 
Q 1831 2784 1636 2517 
Q 1441 2250 1441 1747 
Q 1441 1244 1636 976 
Q 1831 709 2203 709 
Q 2569 709 2762 976 
Q 2956 1244 2956 1747 
Q 2956 2250 2762 2517 
Q 2569 2784 2203 2784 
z
M 2203 3584 
Q 3106 3584 3614 3096 
Q 4122 2609 4122 1747 
Q 4122 884 3614 396 
Q 3106 -91 2203 -91 
Q 1297 -91 786 396 
Q 275 884 275 1747 
Q 275 2609 786 3096 
Q 1297 3584 2203 3584 
z
" transform="scale(0.015625)"/>
      <path id="DejaVuSans-Bold-6d" d="M 3781 2919 
Q 3994 3244 4286 3414 
Q 4578 3584 4928 3584 
Q 5531 3584 5847 3212 
Q 6163 2841 6163 2131 
L 6163 0 
L 5038 0 
L 5038 1825 
Q 5041 1866 5042 1909 
Q 5044 1953 5044 2034 
Q 5044 2406 4934 2573 
Q 4825 2741 4581 2741 
Q 4263 2741 4089 2478 
Q 3916 2216 3909 1719 
L 3909 0 
L 2784 0 
L 2784 1825 
Q 2784 2406 2684 2573 
Q 2584 2741 2328 2741 
Q 2006 2741 1831 2477 
Q 1656 2213 1656 1722 
L 1656 0 
L 531 0 
L 531 3500 
L 1656 3500 
L 1656 2988 
Q 1863 3284 2130 3434 
Q 2397 3584 2719 3584 
Q 3081 3584 3359 3409 
Q 3638 3234 3781 2919 
z
" transform="scale(0.015625)"/>
      <path id="DejaVuSans-Bold-70" d="M 1656 506 
L 1656 -1331 
L 538 -1331 
L 538 3500 
L 1656 3500 
L 1656 2988 
Q 1888 3294 2169 3439 
Q 2450 3584 2816 3584 
Q 3463 3584 3878 3070 
Q 4294 2556 4294 1747 
Q 4294 938 3878 423 
Q 3463 -91 2816 -91 
Q 2450 -91 2169 54 
Q 1888 200 1656 506 
z
M 2400 2772 
Q 2041 2772 1848 2508 
Q 1656 2244 1656 1747 
Q 1656 1250 1848 986 
Q 2041 722 2400 722 
Q 2759 722 2948 984 
Q 3138 1247 3138 1747 
Q 3138 2247 2948 2509 
Q 2759 2772 2400 2772 
z
" transform="scale(0.015625)"/>
      <path id="DejaVuSans-Bold-75" d="M 500 1363 
L 500 3500 
L 1625 3500 
L 1625 3150 
Q 1625 2866 1622 2436 
Q 1619 2006 1619 1863 
Q 1619 1441 1641 1255 
Q 1663 1069 1716 984 
Q 1784 875 1895 815 
Q 2006 756 2150 756 
Q 2500 756 2700 1025 
Q 2900 1294 2900 1772 
L 2900 3500 
L 4019 3500 
L 4019 0 
L 2900 0 
L 2900 506 
Q 2647 200 2364 54 
Q 2081 -91 1741 -91 
Q 1134 -91 817 281 
Q 500 653 500 1363 
z
" transform="scale(0.015625)"/>
      <path id="DejaVuSans-Bold-74" d="M 1759 4494 
L 1759 3500 
L 2913 3500 
L 2913 2700 
L 1759 2700 
L 1759 1216 
Q 1759 972 1856 886 
Q 1953 800 2241 800 
L 2816 800 
L 2816 0 
L 1856 0 
Q 1194 0 917 276 
Q 641 553 641 1216 
L 641 2700 
L 84 2700 
L 84 3500 
L 641 3500 
L 641 4494 
L 1759 4494 
z
" transform="scale(0.015625)"/>
      <path id="DejaVuSans-Bold-61" d="M 2106 1575 
Q 1756 1575 1579 1456 
Q 1403 1338 1403 1106 
Q 1403 894 1545 773 
Q 1688 653 1941 653 
Q 2256 653 2472 879 
Q 2688 1106 2688 1447 
L 2688 1575 
L 2106 1575 
z
M 3816 1997 
L 3816 0 
L 2688 0 
L 2688 519 
Q 2463 200 2181 54 
Q 1900 -91 1497 -91 
Q 953 -91 614 226 
Q 275 544 275 1050 
Q 275 1666 698 1953 
Q 1122 2241 2028 2241 
L 2688 2241 
L 2688 2328 
Q 2688 2594 2478 2717 
Q 2269 2841 1825 2841 
Q 1466 2841 1156 2769 
Q 847 2697 581 2553 
L 581 3406 
Q 941 3494 1303 3539 
Q 1666 3584 2028 3584 
Q 2975 3584 3395 3211 
Q 3816 2838 3816 1997 
z
" transform="scale(0.015625)"/>
      <path id="DejaVuSans-Bold-69" d="M 538 3500 
L 1656 3500 
L 1656 0 
L 538 0 
L 538 3500 
z
M 538 4863 
L 1656 4863 
L 1656 3950 
L 538 3950 
L 538 4863 
z
" transform="scale(0.015625)"/>
      <path id="DejaVuSans-Bold-6e" d="M 4056 2131 
L 4056 0 
L 2931 0 
L 2931 347 
L 2931 1631 
Q 2931 2084 2911 2256 
Q 2891 2428 2841 2509 
Q 2775 2619 2662 2680 
Q 2550 2741 2406 2741 
Q 2056 2741 1856 2470 
Q 1656 2200 1656 1722 
L 1656 0 
L 538 0 
L 538 3500 
L 1656 3500 
L 1656 2988 
Q 1909 3294 2193 3439 
Q 2478 3584 2822 3584 
Q 3428 3584 3742 3212 
Q 4056 2841 4056 2131 
z
" transform="scale(0.015625)"/>
      <path id="DejaVuSans-Bold-20" transform="scale(0.015625)"/>
      <path id="DejaVuSans-Bold-4c" d="M 588 4666 
L 1791 4666 
L 1791 909 
L 3903 909 
L 3903 0 
L 588 0 
L 588 4666 
z
" transform="scale(0.015625)"/>
      <path id="DejaVuSans-Bold-79" d="M 78 3500 
L 1197 3500 
L 2138 1125 
L 2938 3500 
L 4056 3500 
L 2584 -331 
Q 2363 -916 2067 -1148 
Q 1772 -1381 1288 -1381 
L 641 -1381 
L 641 -647 
L 991 -647 
Q 1275 -647 1404 -556 
Q 1534 -466 1606 -231 
L 1638 -134 
L 78 3500 
z
" transform="scale(0.015625)"/>
      <path id="DejaVuSans-Bold-65" d="M 4031 1759 
L 4031 1441 
L 1416 1441 
Q 1456 1047 1700 850 
Q 1944 653 2381 653 
Q 2734 653 3104 758 
Q 3475 863 3866 1075 
L 3866 213 
Q 3469 63 3072 -14 
Q 2675 -91 2278 -91 
Q 1328 -91 801 392 
Q 275 875 275 1747 
Q 275 2603 792 3093 
Q 1309 3584 2216 3584 
Q 3041 3584 3536 3087 
Q 4031 2591 4031 1759 
z
M 2881 2131 
Q 2881 2450 2695 2645 
Q 2509 2841 2209 2841 
Q 1884 2841 1681 2658 
Q 1478 2475 1428 2131 
L 2881 2131 
z
" transform="scale(0.015625)"/>
      <path id="DejaVuSans-Bold-72" d="M 3138 2547 
Q 2991 2616 2845 2648 
Q 2700 2681 2553 2681 
Q 2122 2681 1889 2404 
Q 1656 2128 1656 1613 
L 1656 0 
L 538 0 
L 538 3500 
L 1656 3500 
L 1656 2925 
Q 1872 3269 2151 3426 
Q 2431 3584 2822 3584 
Q 2878 3584 2943 3579 
Q 3009 3575 3134 3559 
L 3138 2547 
z
" transform="scale(0.015625)"/>
     </defs>
     <use xlink:href="#DejaVuSans-Bold-43"/>
     <use xlink:href="#DejaVuSans-Bold-6f" transform="translate(73.388672 0)"/>
     <use xlink:href="#DejaVuSans-Bold-6d" transform="translate(142.089844 0)"/>
     <use xlink:href="#DejaVuSans-Bold-70" transform="translate(246.289062 0)"/>
     <use xlink:href="#DejaVuSans-Bold-75" transform="translate(317.871094 0)"/>
     <use xlink:href="#DejaVuSans-Bold-74" transform="translate(389.0625 0)"/>
     <use xlink:href="#DejaVuSans-Bold-61" transform="translate(436.865234 0)"/>
     <use xlink:href="#DejaVuSans-Bold-74" transform="translate(504.345703 0)"/>
     <use xlink:href="#DejaVuSans-Bold-69" transform="translate(552.148438 0)"/>
     <use xlink:href="#DejaVuSans-Bold-6f" transform="translate(586.425781 0)"/>
     <use xlink:href="#DejaVuSans-Bold-6e" transform="translate(655.126953 0)"/>
     <use xlink:href="#DejaVuSans-Bold-20" transform="translate(726.318359 0)"/>
     <use xlink:href="#DejaVuSans-Bold-4c" transform="translate(761.132812 0)"/>
     <use xlink:href="#DejaVuSans-Bold-61" transform="translate(824.853516 0)"/>
     <use xlink:href="#DejaVuSans-Bold-79" transform="translate(889.208984 0)"/>
     <use xlink:href="#DejaVuSans-Bold-65" transform="translate(954.394531 0)"/>
     <use xlink:href="#DejaVuSans-Bold-72" transform="translate(1022.216797 0)"/>
    </g>
   </g>
   <g id="text_2">
    <!-- LLM (replaceable processing engine) -->
    <g style="fill: #ffffff; opacity: 0.9" transform="translate(197.257539 73.181406) scale(0.095 -0.095)">
     <defs>
      <path id="DejaVuSans-4c" d="M 628 4666 
L 1259 4666 
L 1259 531 
L 3531 531 
L 3531 0 
L 628 0 
L 628 4666 
z
" transform="scale(0.015625)"/>
      <path id="DejaVuSans-4d" d="M 628 4666 
L 1569 4666 
L 2759 1491 
L 3956 4666 
L 4897 4666 
L 4897 0 
L 4281 0 
L 4281 4097 
L 3078 897 
L 2444 897 
L 1241 4097 
L 1241 0 
L 628 0 
L 628 4666 
z
" transform="scale(0.015625)"/>
      <path id="DejaVuSans-20" transform="scale(0.015625)"/>
      <path id="DejaVuSans-28" d="M 1984 4856 
Q 1566 4138 1362 3434 
Q 1159 2731 1159 2009 
Q 1159 1288 1364 580 
Q 1569 -128 1984 -844 
L 1484 -844 
Q 1016 -109 783 600 
Q 550 1309 550 2009 
Q 550 2706 781 3412 
Q 1013 4119 1484 4856 
L 1984 4856 
z
" transform="scale(0.015625)"/>
      <path id="DejaVuSans-72" d="M 2631 2963 
Q 2534 3019 2420 3045 
Q 2306 3072 2169 3072 
Q 1681 3072 1420 2755 
Q 1159 2438 1159 1844 
L 1159 0 
L 581 0 
L 581 3500 
L 1159 3500 
L 1159 2956 
Q 1341 3275 1631 3429 
Q 1922 3584 2338 3584 
Q 2397 3584 2469 3576 
Q 2541 3569 2628 3553 
L 2631 2963 
z
" transform="scale(0.015625)"/>
      <path id="DejaVuSans-65" d="M 3597 1894 
L 3597 1613 
L 953 1613 
Q 991 1019 1311 708 
Q 1631 397 2203 397 
Q 2534 397 2845 478 
Q 3156 559 3463 722 
L 3463 178 
Q 3153 47 2828 -22 
Q 2503 -91 2169 -91 
Q 1331 -91 842 396 
Q 353 884 353 1716 
Q 353 2575 817 3079 
Q 1281 3584 2069 3584 
Q 2775 3584 3186 3129 
Q 3597 2675 3597 1894 
z
M 3022 2063 
Q 3016 2534 2758 2815 
Q 2500 3097 2075 3097 
Q 1594 3097 1305 2825 
Q 1016 2553 972 2059 
L 3022 2063 
z
" transform="scale(0.015625)"/>
      <path id="DejaVuSans-70" d="M 1159 525 
L 1159 -1331 
L 581 -1331 
L 581 3500 
L 1159 3500 
L 1159 2969 
Q 1341 3281 1617 3432 
Q 1894 3584 2278 3584 
Q 2916 3584 3314 3078 
Q 3713 2572 3713 1747 
Q 3713 922 3314 415 
Q 2916 -91 2278 -91 
Q 1894 -91 1617 61 
Q 1341 213 1159 525 
z
M 3116 1747 
Q 3116 2381 2855 2742 
Q 2594 3103 2138 3103 
Q 1681 3103 1420 2742 
Q 1159 2381 1159 1747 
Q 1159 1113 1420 752 
Q 1681 391 2138 391 
Q 2594 391 2855 752 
Q 3116 1113 3116 1747 
z
" transform="scale(0.015625)"/>
      <path id="DejaVuSans-6c" d="M 603 4863 
L 1178 4863 
L 1178 0 
L 603 0 
L 603 4863 
z
" transform="scale(0.015625)"/>
      <path id="DejaVuSans-61" d="M 2194 1759 
Q 1497 1759 1228 1600 
Q 959 1441 959 1056 
Q 959 750 1161 570 
Q 1363 391 1709 391 
Q 2188 391 2477 730 
Q 2766 1069 2766 1631 
L 2766 1759 
L 2194 1759 
z
M 3341 1997 
L 3341 0 
L 2766 0 
L 2766 531 
Q 2569 213 2275 61 
Q 1981 -91 1556 -91 
Q 1019 -91 701 211 
Q 384 513 384 1019 
Q 384 1609 779 1909 
Q 1175 2209 1959 2209 
L 2766 2209 
L 2766 2266 
Q 2766 2663 2505 2880 
Q 2244 3097 1772 3097 
Q 1472 3097 1187 3025 
Q 903 2953 641 2809 
L 641 3341 
Q 956 3463 1253 3523 
Q 1550 3584 1831 3584 
Q 2591 3584 2966 3190 
Q 3341 2797 3341 1997 
z
" transform="scale(0.015625)"/>
      <path id="DejaVuSans-63" d="M 3122 3366 
L 3122 2828 
Q 2878 2963 2633 3030 
Q 2388 3097 2138 3097 
Q 1578 3097 1268 2742 
Q 959 2388 959 1747 
Q 959 1106 1268 751 
Q 1578 397 2138 397 
Q 2388 397 2633 464 
Q 2878 531 3122 666 
L 3122 134 
Q 2881 22 2623 -34 
Q 2366 -91 2075 -91 
Q 1284 -91 818 406 
Q 353 903 353 1747 
Q 353 2603 823 3093 
Q 1294 3584 2113 3584 
Q 2378 3584 2631 3529 
Q 2884 3475 3122 3366 
z
" transform="scale(0.015625)"/>
      <path id="DejaVuSans-62" d="M 3116 1747 
Q 3116 2381 2855 2742 
Q 2594 3103 2138 3103 
Q 1681 3103 1420 2742 
Q 1159 2381 1159 1747 
Q 1159 1113 1420 752 
Q 1681 391 2138 391 
Q 2594 391 2855 752 
Q 3116 1113 3116 1747 
z
M 1159 2969 
Q 1341 3281 1617 3432 
Q 1894 3584 2278 3584 
Q 2916 3584 3314 3078 
Q 3713 2572 3713 1747 
Q 3713 922 3314 415 
Q 2916 -91 2278 -91 
Q 1894 -91 1617 61 
Q 1341 213 1159 525 
L 1159 0 
L 581 0 
L 581 4863 
L 1159 4863 
L 1159 2969 
z
" transform="scale(0.015625)"/>
      <path id="DejaVuSans-6f" d="M 1959 3097 
Q 1497 3097 1228 2736 
Q 959 2375 959 1747 
Q 959 1119 1226 758 
Q 1494 397 1959 397 
Q 2419 397 2687 759 
Q 2956 1122 2956 1747 
Q 2956 2369 2687 2733 
Q 2419 3097 1959 3097 
z
M 1959 3584 
Q 2709 3584 3137 3096 
Q 3566 2609 3566 1747 
Q 3566 888 3137 398 
Q 2709 -91 1959 -91 
Q 1206 -91 779 398 
Q 353 888 353 1747 
Q 353 2609 779 3096 
Q 1206 3584 1959 3584 
z
" transform="scale(0.015625)"/>
      <path id="DejaVuSans-73" d="M 2834 3397 
L 2834 2853 
Q 2591 2978 2328 3040 
Q 2066 3103 1784 3103 
Q 1356 3103 1142 2972 
Q 928 2841 928 2578 
Q 928 2378 1081 2264 
Q 1234 2150 1697 2047 
L 1894 2003 
Q 2506 1872 2764 1633 
Q 3022 1394 3022 966 
Q 3022 478 2636 193 
Q 2250 -91 1575 -91 
Q 1294 -91 989 -36 
Q 684 19 347 128 
L 347 722 
Q 666 556 975 473 
Q 1284 391 1588 391 
Q 1994 391 2212 530 
Q 2431 669 2431 922 
Q 2431 1156 2273 1281 
Q 2116 1406 1581 1522 
L 1381 1569 
Q 847 1681 609 1914 
Q 372 2147 372 2553 
Q 372 3047 722 3315 
Q 1072 3584 1716 3584 
Q 2034 3584 2315 3537 
Q 2597 3491 2834 3397 
z
" transform="scale(0.015625)"/>
      <path id="DejaVuSans-69" d="M 603 3500 
L 1178 3500 
L 1178 0 
L 603 0 
L 603 3500 
z
M 603 4863 
L 1178 4863 
L 1178 4134 
L 603 4134 
L 603 4863 
z
" transform="scale(0.015625)"/>
      <path id="DejaVuSans-6e" d="M 3513 2113 
L 3513 0 
L 2938 0 
L 2938 2094 
Q 2938 2591 2744 2837 
Q 2550 3084 2163 3084 
Q 1697 3084 1428 2787 
Q 1159 2491 1159 1978 
L 1159 0 
L 581 0 
L 581 3500 
L 1159 3500 
L 1159 2956 
Q 1366 3272 1645 3428 
Q 1925 3584 2291 3584 
Q 2894 3584 3203 3211 
Q 3513 2838 3513 2113 
z
" transform="scale(0.015625)"/>
      <path id="DejaVuSans-67" d="M 2906 1791 
Q 2906 2416 2648 2759 
Q 2391 3103 1925 3103 
Q 1463 3103 1205 2759 
Q 947 2416 947 1791 
Q 947 1169 1205 825 
Q 1463 481 1925 481 
Q 2391 481 2648 825 
Q 2906 1169 2906 1791 
z
M 3481 434 
Q 3481 -459 3084 -895 
Q 2688 -1331 1869 -1331 
Q 1566 -1331 1297 -1286 
Q 1028 -1241 775 -1147 
L 775 -588 
Q 1028 -725 1275 -790 
Q 1522 -856 1778 -856 
Q 2344 -856 2625 -561 
Q 2906 -266 2906 331 
L 2906 616 
Q 2728 306 2450 153 
Q 2172 0 1784 0 
Q 1141 0 747 490 
Q 353 981 353 1791 
Q 353 2603 747 3093 
Q 1141 3584 1784 3584 
Q 2172 3584 2450 3431 
Q 2728 3278 2906 2969 
L 2906 3500 
L 3481 3500 
L 3481 434 
z
" transform="scale(0.015625)"/>
      <path id="DejaVuSans-29" d="M 513 4856 
L 1013 4856 
Q 1481 4119 1714 3412 
Q 1947 2706 1947 2009 
Q 1947 1309 1714 600 
Q 1481 -109 1013 -844 
L 513 -844 
Q 928 -128 1133 580 
Q 1338 1288 1338 2009 
Q 1338 2731 1133 3434 
Q 928 4138 513 4856 
z
" transform="scale(0.015625)"/>
     </defs>
     <use xlink:href="#DejaVuSans-4c"/>
     <use xlink:href="#DejaVuSans-4c" transform="translate(55.712891 0)"/>
     <use xlink:href="#DejaVuSans-4d" transform="translate(111.425781 0)"/>
     <use xlink:href="#DejaVuSans-20" transform="translate(197.705078 0)"/>
     <use xlink:href="#DejaVuSans-28" transform="translate(229.492188 0)"/>
     <use xlink:href="#DejaVuSans-72" transform="translate(268.505859 0)"/>
     <use xlink:href="#DejaVuSans-65" transform="translate(307.369141 0)"/>
     <use xlink:href="#DejaVuSans-70" transform="translate(368.892578 0)"/>
     <use xlink:href="#DejaVuSans-6c" transform="translate(432.369141 0)"/>
     <use xlink:href="#DejaVuSans-61" transform="translate(460.152344 0)"/>
     <use xlink:href="#DejaVuSans-63" transform="translate(521.431641 0)"/>
     <use xlink:href="#DejaVuSans-65" transform="translate(576.412109 0)"/>
     <use xlink:href="#DejaVuSans-61" transform="translate(637.935547 0)"/>
     <use xlink:href="#DejaVuSans-62" transform="translate(699.214844 0)"/>
     <use xlink:href="#DejaVuSans-6c" transform="translate(762.691406 0)"/>
     <use xlink:href="#DejaVuSans-65" transform="translate(790.474609 0)"/>
     <use xlink:href="#DejaVuSans-20" transform="translate(851.998047 0)"/>
     <use xlink:href="#DejaVuSans-70" transform="translate(883.785156 0)"/>
     <use xlink:href="#DejaVuSans-72" transform="translate(947.261719 0)"/>
     <use xlink:href="#DejaVuSans-6f" transform="translate(986.125 0)"/>
     <use xlink:href="#DejaVuSans-63" transform="translate(1047.306641 0)"/>
     <use xlink:href="#DejaVuSans-65" transform="translate(1102.287109 0)"/>
     <use xlink:href="#DejaVuSans-73" transform="translate(1163.810547 0)"/>
     <use xlink:href="#DejaVuSans-73" transform="translate(1215.910156 0)"/>
     <use xlink:href="#DejaVuSans-69" transform="translate(1268.009766 0)"/>
     <use xlink:href="#DejaVuSans-6e" transform="translate(1295.792969 0)"/>
     <use xlink:href="#DejaVuSans-67" transform="translate(1359.171875 0)"/>
     <use xlink:href="#DejaVuSans-20" transform="translate(1422.648438 0)"/>
     <use xlink:href="#DejaVuSans-65" transform="translate(1454.435547 0)"/>
     <use xlink:href="#DejaVuSans-6e" transform="translate(1515.958984 0)"/>
     <use xlink:href="#DejaVuSans-67" transform="translate(1579.337891 0)"/>
     <use xlink:href="#DejaVuSans-69" transform="translate(1642.814453 0)"/>
     <use xlink:href="#DejaVuSans-6e" transform="translate(1670.597656 0)"/>
     <use xlink:href="#DejaVuSans-65" transform="translate(1733.976562 0)"/>
     <use xlink:href="#DejaVuSans-29" transform="translate(1795.5 0)"/>
    </g>
   </g>
   <g id="patch_10">
    <path d="M 284.4 111.864113 
Q 284.4 102.240075 284.4 92.616038 
" style="fill: none; stroke: #555555; stroke-width: 2; stroke-linecap: round"/>
    <path d="M 286.4 107.864113 
L 284.4 111.864113 
L 282.4 107.864113 
" style="fill: none; stroke: #555555; stroke-width: 2; stroke-linecap: round"/>
    <path d="M 282.4 96.616038 
L 284.4 92.616038 
L 286.4 96.616038 
" style="fill: none; stroke: #555555; stroke-width: 2; stroke-linecap: round"/>
   </g>
   <g id="text_3">
    <!-- Bridge Layer -->
    <g style="fill: #ffffff" transform="translate(234.278906 139.708438) scale(0.14 -0.14)">
     <defs>
      <path id="DejaVuSans-Bold-42" d="M 2456 2859 
Q 2741 2859 2887 2984 
Q 3034 3109 3034 3353 
Q 3034 3594 2887 3720 
Q 2741 3847 2456 3847 
L 1791 3847 
L 1791 2859 
L 2456 2859 
z
M 2497 819 
Q 2859 819 3042 972 
Q 3225 1125 3225 1434 
Q 3225 1738 3044 1889 
Q 2863 2041 2497 2041 
L 1791 2041 
L 1791 819 
L 2497 819 
z
M 3616 2497 
Q 4003 2384 4215 2081 
Q 4428 1778 4428 1338 
Q 4428 663 3972 331 
Q 3516 0 2584 0 
L 588 0 
L 588 4666 
L 2394 4666 
Q 3366 4666 3802 4372 
Q 4238 4078 4238 3431 
Q 4238 3091 4078 2852 
Q 3919 2613 3616 2497 
z
" transform="scale(0.015625)"/>
      <path id="DejaVuSans-Bold-64" d="M 2919 2988 
L 2919 4863 
L 4044 4863 
L 4044 0 
L 2919 0 
L 2919 506 
Q 2688 197 2409 53 
Q 2131 -91 1766 -91 
Q 1119 -91 703 423 
Q 288 938 288 1747 
Q 288 2556 703 3070 
Q 1119 3584 1766 3584 
Q 2128 3584 2408 3439 
Q 2688 3294 2919 2988 
z
M 2181 722 
Q 2541 722 2730 984 
Q 2919 1247 2919 1747 
Q 2919 2247 2730 2509 
Q 2541 2772 2181 2772 
Q 1825 2772 1636 2509 
Q 1447 2247 1447 1747 
Q 1447 1247 1636 984 
Q 1825 722 2181 722 
z
" transform="scale(0.015625)"/>
      <path id="DejaVuSans-Bold-67" d="M 2919 594 
Q 2688 288 2409 144 
Q 2131 0 1766 0 
Q 1125 0 706 504 
Q 288 1009 288 1791 
Q 288 2575 706 3076 
Q 1125 3578 1766 3578 
Q 2131 3578 2409 3434 
Q 2688 3291 2919 2981 
L 2919 3500 
L 4044 3500 
L 4044 353 
Q 4044 -491 3511 -936 
Q 2978 -1381 1966 -1381 
Q 1638 -1381 1331 -1331 
Q 1025 -1281 716 -1178 
L 716 -306 
Q 1009 -475 1290 -558 
Q 1572 -641 1856 -641 
Q 2406 -641 2662 -400 
Q 2919 -159 2919 353 
L 2919 594 
z
M 2181 2772 
Q 1834 2772 1640 2515 
Q 1447 2259 1447 1791 
Q 1447 1309 1634 1061 
Q 1822 813 2181 813 
Q 2531 813 2725 1069 
Q 2919 1325 2919 1791 
Q 2919 2259 2725 2515 
Q 2531 2772 2181 2772 
z
" transform="scale(0.015625)"/>
     </defs>
     <use xlink:href="#DejaVuSans-Bold-42"/>
     <use xlink:href="#DejaVuSans-Bold-72" transform="translate(76.220703 0)"/>
     <use xlink:href="#DejaVuSans-Bold-69" transform="translate(125.537109 0)"/>
     <use xlink:href="#DejaVuSans-Bold-64" transform="translate(159.814453 0)"/>
     <use xlink:href="#DejaVuSans-Bold-67" transform="translate(231.396484 0)"/>
     <use xlink:href="#DejaVuSans-Bold-65" transform="translate(302.978516 0)"/>
     <use xlink:href="#DejaVuSans-Bold-20" transform="translate(370.800781 0)"/>
     <use xlink:href="#DejaVuSans-Bold-4c" transform="translate(405.615234 0)"/>
     <use xlink:href="#DejaVuSans-Bold-61" transform="translate(469.335938 0)"/>
     <use xlink:href="#DejaVuSans-Bold-79" transform="translate(533.691406 0)"/>
     <use xlink:href="#DejaVuSans-Bold-65" transform="translate(598.876953 0)"/>
     <use xlink:href="#DejaVuSans-Bold-72" transform="translate(666.699219 0)"/>
    </g>
   </g>
   <g id="text_4">
    <!-- e.g., Model Context Protocol (MCP) — bidirectional -->
    <g style="fill: #ffffff; opacity: 0.9" transform="translate(164.748984 156.341406) scale(0.095 -0.095)">
     <defs>
      <path id="DejaVuSans-2e" d="M 684 794 
L 1344 794 
L 1344 0 
L 684 0 
L 684 794 
z
" transform="scale(0.015625)"/>
      <path id="DejaVuSans-2c" d="M 750 794 
L 1409 794 
L 1409 256 
L 897 -744 
L 494 -744 
L 750 256 
L 750 794 
z
" transform="scale(0.015625)"/>
      <path id="DejaVuSans-64" d="M 2906 2969 
L 2906 4863 
L 3481 4863 
L 3481 0 
L 2906 0 
L 2906 525 
Q 2725 213 2448 61 
Q 2172 -91 1784 -91 
Q 1150 -91 751 415 
Q 353 922 353 1747 
Q 353 2572 751 3078 
Q 1150 3584 1784 3584 
Q 2172 3584 2448 3432 
Q 2725 3281 2906 2969 
z
M 947 1747 
Q 947 1113 1208 752 
Q 1469 391 1925 391 
Q 2381 391 2643 752 
Q 2906 1113 2906 1747 
Q 2906 2381 2643 2742 
Q 2381 3103 1925 3103 
Q 1469 3103 1208 2742 
Q 947 2381 947 1747 
z
" transform="scale(0.015625)"/>
      <path id="DejaVuSans-43" d="M 4122 4306 
L 4122 3641 
Q 3803 3938 3442 4084 
Q 3081 4231 2675 4231 
Q 1875 4231 1450 3742 
Q 1025 3253 1025 2328 
Q 1025 1406 1450 917 
Q 1875 428 2675 428 
Q 3081 428 3442 575 
Q 3803 722 4122 1019 
L 4122 359 
Q 3791 134 3420 21 
Q 3050 -91 2638 -91 
Q 1578 -91 968 557 
Q 359 1206 359 2328 
Q 359 3453 968 4101 
Q 1578 4750 2638 4750 
Q 3056 4750 3426 4639 
Q 3797 4528 4122 4306 
z
" transform="scale(0.015625)"/>
      <path id="DejaVuSans-74" d="M 1172 4494 
L 1172 3500 
L 2356 3500 
L 2356 3053 
L 1172 3053 
L 1172 1153 
Q 1172 725 1289 603 
Q 1406 481 1766 481 
L 2356 481 
L 2356 0 
L 1766 0 
Q 1100 0 847 248 
Q 594 497 594 1153 
L 594 3053 
L 172 3053 
L 172 3500 
L 594 3500 
L 594 4494 
L 1172 4494 
z
" transform="scale(0.015625)"/>
      <path id="DejaVuSans-78" d="M 3513 3500 
L 2247 1797 
L 3578 0 
L 2900 0 
L 1881 1375 
L 863 0 
L 184 0 
L 1544 1831 
L 300 3500 
L 978 3500 
L 1906 2253 
L 2834 3500 
L 3513 3500 
z
" transform="scale(0.015625)"/>
      <path id="DejaVuSans-50" d="M 1259 4147 
L 1259 2394 
L 2053 2394 
Q 2494 2394 2734 2622 
Q 2975 2850 2975 3272 
Q 2975 3691 2734 3919 
Q 2494 4147 2053 4147 
L 1259 4147 
z
M 628 4666 
L 2053 4666 
Q 2838 4666 3239 4311 
Q 3641 3956 3641 3272 
Q 3641 2581 3239 2228 
Q 2838 1875 2053 1875 
L 1259 1875 
L 1259 0 
L 628 0 
L 628 4666 
z
" transform="scale(0.015625)"/>
      <path id="DejaVuSans-2014" d="M 313 1978 
L 6088 1978 
L 6088 1528 
L 313 1528 
L 313 1978 
z
" transform="scale(0.015625)"/>
     </defs>
     <use xlink:href="#DejaVuSans-65"/>
     <use xlink:href="#DejaVuSans-2e" transform="translate(61.523438 0)"/>
     <use xlink:href="#DejaVuSans-67" transform="translate(93.310547 0)"/>
     <use xlink:href="#DejaVuSans-2e" transform="translate(156.787109 0)"/>
     <use xlink:href="#DejaVuSans-2c" transform="translate(188.574219 0)"/>
     <use xlink:href="#DejaVuSans-20" transform="translate(220.361328 0)"/>
     <use xlink:href="#DejaVuSans-4d" transform="translate(252.148438 0)"/>
     <use xlink:href="#DejaVuSans-6f" transform="translate(338.427734 0)"/>
     <use xlink:href="#DejaVuSans-64" transform="translate(399.609375 0)"/>
     <use xlink:href="#DejaVuSans-65" transform="translate(463.085938 0)"/>
     <use xlink:href="#DejaVuSans-6c" transform="translate(524.609375 0)"/>
     <use xlink:href="#DejaVuSans-20" transform="translate(552.392578 0)"/>
     <use xlink:href="#DejaVuSans-43" transform="translate(584.179688 0)"/>
     <use xlink:href="#DejaVuSans-6f" transform="translate(654.003906 0)"/>
     <use xlink:href="#DejaVuSans-6e" transform="translate(715.185547 0)"/>
     <use xlink:href="#DejaVuSans-74" transform="translate(778.564453 0)"/>
     <use xlink:href="#DejaVuSans-65" transform="translate(817.773438 0)"/>
     <use xlink:href="#DejaVuSans-78" transform="translate(877.546875 0)"/>
     <use xlink:href="#DejaVuSans-74" transform="translate(936.726562 0)"/>
     <use xlink:href="#DejaVuSans-20" transform="translate(975.935547 0)"/>
     <use xlink:href="#DejaVuSans-50" transform="translate(1007.722656 0)"/>
     <use xlink:href="#DejaVuSans-72" transform="translate(1066.275391 0)"/>
     <use xlink:href="#DejaVuSans-6f" transform="translate(1105.138672 0)"/>
     <use xlink:href="#DejaVuSans-74" transform="translate(1166.320312 0)"/>
     <use xlink:href="#DejaVuSans-6f" transform="translate(1205.529297 0)"/>
     <use xlink:href="#DejaVuSans-63" transform="translate(1266.710938 0)"/>
     <use xlink:href="#DejaVuSans-6f" transform="translate(1321.691406 0)"/>
     <use xlink:href="#DejaVuSans-6c" transform="translate(1382.873047 0)"/>
     <use xlink:href="#DejaVuSans-20" transform="translate(1410.65625 0)"/>
     <use xlink:href="#DejaVuSans-28" transform="translate(1442.443359 0)"/>
     <use xlink:href="#DejaVuSans-4d" transform="translate(1481.457031 0)"/>
     <use xlink:href="#DejaVuSans-43" transform="translate(1567.736328 0)"/>
     <use xlink:href="#DejaVuSans-50" transform="translate(1637.560547 0)"/>
     <use xlink:href="#DejaVuSans-29" transform="translate(1697.863281 0)"/>
     <use xlink:href="#DejaVuSans-20" transform="translate(1736.876953 0)"/>
     <use xlink:href="#DejaVuSans-2014" transform="translate(1768.664062 0)"/>
     <use xlink:href="#DejaVuSans-20" transform="translate(1868.664062 0)"/>
     <use xlink:href="#DejaVuSans-62" transform="translate(1900.451172 0)"/>
     <use xlink:href="#DejaVuSans-69" transform="translate(1963.927734 0)"/>
     <use xlink:href="#DejaVuSans-64" transform="translate(1991.710938 0)"/>
     <use xlink:href="#DejaVuSans-69" transform="translate(2055.1875 0)"/>
     <use xlink:href="#DejaVuSans-72" transform="translate(2082.970703 0)"/>
     <use xlink:href="#DejaVuSans-65" transform="translate(2121.833984 0)"/>
     <use xlink:href="#DejaVuSans-63" transform="translate(2183.357422 0)"/>
     <use xlink:href="#DejaVuSans-74" transform="translate(2238.337891 0)"/>
     <use xlink:href="#DejaVuSans-69" transform="translate(2277.546875 0)"/>
     <use xlink:href="#DejaVuSans-6f" transform="translate(2305.330078 0)"/>
     <use xlink:href="#DejaVuSans-6e" transform="translate(2366.511719 0)"/>
     <use xlink:href="#DejaVuSans-61" transform="translate(2429.890625 0)"/>
     <use xlink:href="#DejaVuSans-6c" transform="translate(2491.169922 0)"/>
    </g>
   </g>
   <g id="patch_11">
    <path d="M 284.4 191.064113 
Q 284.4 181.440075 284.4 171.816038 
" style="fill: none; stroke: #555555; stroke-width: 2; stroke-linecap: round"/>
    <path d="M 286.4 187.064113 
L 284.4 191.064113 
L 282.4 187.064113 
" style="fill: none; stroke: #555555; stroke-width: 2; stroke-linecap: round"/>
    <path d="M 282.4 175.816038 
L 284.4 171.816038 
L 286.4 175.816038 
" style="fill: none; stroke: #555555; stroke-width: 2; stroke-linecap: round"/>
   </g>
   <g id="text_5">
    <!-- Knowledge Layer -->
    <g style="fill: #2d2d2d" transform="translate(216.634531 212.968437) scale(0.14 -0.14)">
     <defs>
      <path id="DejaVuSans-Bold-4b" d="M 588 4666 
L 1791 4666 
L 1791 2963 
L 3525 4666 
L 4922 4666 
L 2675 2456 
L 5153 0 
L 3647 0 
L 1791 1838 
L 1791 0 
L 588 0 
L 588 4666 
z
" transform="scale(0.015625)"/>
      <path id="DejaVuSans-Bold-77" d="M 225 3500 
L 1313 3500 
L 1900 1088 
L 2491 3500 
L 3425 3500 
L 4013 1113 
L 4603 3500 
L 5691 3500 
L 4769 0 
L 3547 0 
L 2956 2406 
L 2369 0 
L 1147 0 
L 225 3500 
z
" transform="scale(0.015625)"/>
      <path id="DejaVuSans-Bold-6c" d="M 538 4863 
L 1656 4863 
L 1656 0 
L 538 0 
L 538 4863 
z
" transform="scale(0.015625)"/>
     </defs>
     <use xlink:href="#DejaVuSans-Bold-4b"/>
     <use xlink:href="#DejaVuSans-Bold-6e" transform="translate(77.490234 0)"/>
     <use xlink:href="#DejaVuSans-Bold-6f" transform="translate(148.681641 0)"/>
     <use xlink:href="#DejaVuSans-Bold-77" transform="translate(217.382812 0)"/>
     <use xlink:href="#DejaVuSans-Bold-6c" transform="translate(309.765625 0)"/>
     <use xlink:href="#DejaVuSans-Bold-65" transform="translate(344.042969 0)"/>
     <use xlink:href="#DejaVuSans-Bold-64" transform="translate(411.865234 0)"/>
     <use xlink:href="#DejaVuSans-Bold-67" transform="translate(483.447266 0)"/>
     <use xlink:href="#DejaVuSans-Bold-65" transform="translate(555.029297 0)"/>
     <use xlink:href="#DejaVuSans-Bold-20" transform="translate(622.851562 0)"/>
     <use xlink:href="#DejaVuSans-Bold-4c" transform="translate(657.666016 0)"/>
     <use xlink:href="#DejaVuSans-Bold-61" transform="translate(721.386719 0)"/>
     <use xlink:href="#DejaVuSans-Bold-79" transform="translate(785.742188 0)"/>
     <use xlink:href="#DejaVuSans-Bold-65" transform="translate(850.927734 0)"/>
     <use xlink:href="#DejaVuSans-Bold-72" transform="translate(918.75 0)"/>
    </g>
   </g>
   <g id="text_6">
    <!-- Persistent, human-owned repository -->
    <g style="fill: #666666" transform="translate(198.249844 227.621406) scale(0.095 -0.095)">
     <defs>
      <path id="DejaVuSans-68" d="M 3513 2113 
L 3513 0 
L 2938 0 
L 2938 2094 
Q 2938 2591 2744 2837 
Q 2550 3084 2163 3084 
Q 1697 3084 1428 2787 
Q 1159 2491 1159 1978 
L 1159 0 
L 581 0 
L 581 4863 
L 1159 4863 
L 1159 2956 
Q 1366 3272 1645 3428 
Q 1925 3584 2291 3584 
Q 2894 3584 3203 3211 
Q 3513 2838 3513 2113 
z
" transform="scale(0.015625)"/>
      <path id="DejaVuSans-75" d="M 544 1381 
L 544 3500 
L 1119 3500 
L 1119 1403 
Q 1119 906 1312 657 
Q 1506 409 1894 409 
Q 2359 409 2629 706 
Q 2900 1003 2900 1516 
L 2900 3500 
L 3475 3500 
L 3475 0 
L 2900 0 
L 2900 538 
Q 2691 219 2414 64 
Q 2138 -91 1772 -91 
Q 1169 -91 856 284 
Q 544 659 544 1381 
z
M 1991 3584 
L 1991 3584 
z
" transform="scale(0.015625)"/>
      <path id="DejaVuSans-6d" d="M 3328 2828 
Q 3544 3216 3844 3400 
Q 4144 3584 4550 3584 
Q 5097 3584 5394 3201 
Q 5691 2819 5691 2113 
L 5691 0 
L 5113 0 
L 5113 2094 
Q 5113 2597 4934 2840 
Q 4756 3084 4391 3084 
Q 3944 3084 3684 2787 
Q 3425 2491 3425 1978 
L 3425 0 
L 2847 0 
L 2847 2094 
Q 2847 2600 2669 2842 
Q 2491 3084 2119 3084 
Q 1678 3084 1418 2786 
Q 1159 2488 1159 1978 
L 1159 0 
L 581 0 
L 581 3500 
L 1159 3500 
L 1159 2956 
Q 1356 3278 1631 3431 
Q 1906 3584 2284 3584 
Q 2666 3584 2933 3390 
Q 3200 3197 3328 2828 
z
" transform="scale(0.015625)"/>
      <path id="DejaVuSans-2d" d="M 313 2009 
L 1997 2009 
L 1997 1497 
L 313 1497 
L 313 2009 
z
" transform="scale(0.015625)"/>
      <path id="DejaVuSans-77" d="M 269 3500 
L 844 3500 
L 1563 769 
L 2278 3500 
L 2956 3500 
L 3675 769 
L 4391 3500 
L 4966 3500 
L 4050 0 
L 3372 0 
L 2619 2869 
L 1863 0 
L 1184 0 
L 269 3500 
z
" transform="scale(0.015625)"/>
      <path id="DejaVuSans-79" d="M 2059 -325 
Q 1816 -950 1584 -1140 
Q 1353 -1331 966 -1331 
L 506 -1331 
L 506 -850 
L 844 -850 
Q 1081 -850 1212 -737 
Q 1344 -625 1503 -206 
L 1606 56 
L 191 3500 
L 800 3500 
L 1894 763 
L 2988 3500 
L 3597 3500 
L 2059 -325 
z
" transform="scale(0.015625)"/>
     </defs>
     <use xlink:href="#DejaVuSans-50"/>
     <use xlink:href="#DejaVuSans-65" transform="translate(56.677734 0)"/>
     <use xlink:href="#DejaVuSans-72" transform="translate(118.201172 0)"/>
     <use xlink:href="#DejaVuSans-73" transform="translate(159.314453 0)"/>
     <use xlink:href="#DejaVuSans-69" transform="translate(211.414062 0)"/>
     <use xlink:href="#DejaVuSans-73" transform="translate(239.197266 0)"/>
     <use xlink:href="#DejaVuSans-74" transform="translate(291.296875 0)"/>
     <use xlink:href="#DejaVuSans-65" transform="translate(330.505859 0)"/>
     <use xlink:href="#DejaVuSans-6e" transform="translate(392.029297 0)"/>
     <use xlink:href="#DejaVuSans-74" transform="translate(455.408203 0)"/>
     <use xlink:href="#DejaVuSans-2c" transform="translate(494.617188 0)"/>
     <use xlink:href="#DejaVuSans-20" transform="translate(526.404297 0)"/>
     <use xlink:href="#DejaVuSans-68" transform="translate(558.191406 0)"/>
     <use xlink:href="#DejaVuSans-75" transform="translate(621.570312 0)"/>
     <use xlink:href="#DejaVuSans-6d" transform="translate(684.949219 0)"/>
     <use xlink:href="#DejaVuSans-61" transform="translate(782.361328 0)"/>
     <use xlink:href="#DejaVuSans-6e" transform="translate(843.640625 0)"/>
     <use xlink:href="#DejaVuSans-2d" transform="translate(907.019531 0)"/>
     <use xlink:href="#DejaVuSans-6f" transform="translate(944.978516 0)"/>
     <use xlink:href="#DejaVuSans-77" transform="translate(1006.160156 0)"/>
     <use xlink:href="#DejaVuSans-6e" transform="translate(1087.947266 0)"/>
     <use xlink:href="#DejaVuSans-65" transform="translate(1151.326172 0)"/>
     <use xlink:href="#DejaVuSans-64" transform="translate(1212.849609 0)"/>
     <use xlink:href="#DejaVuSans-20" transform="translate(1276.326172 0)"/>
     <use xlink:href="#DejaVuSans-72" transform="translate(1308.113281 0)"/>
     <use xlink:href="#DejaVuSans-65" transform="translate(1346.976562 0)"/>
     <use xlink:href="#DejaVuSans-70" transform="translate(1408.5 0)"/>
     <use xlink:href="#DejaVuSans-6f" transform="translate(1471.976562 0)"/>
     <use xlink:href="#DejaVuSans-73" transform="translate(1533.158203 0)"/>
     <use xlink:href="#DejaVuSans-69" transform="translate(1585.257812 0)"/>
     <use xlink:href="#DejaVuSans-74" transform="translate(1613.041016 0)"/>
     <use xlink:href="#DejaVuSans-6f" transform="translate(1652.25 0)"/>
     <use xlink:href="#DejaVuSans-72" transform="translate(1713.431641 0)"/>
     <use xlink:href="#DejaVuSans-79" transform="translate(1754.544922 0)"/>
    </g>
   </g>
   <g id="text_7">
    <!-- Hub Index  (Routing Table) -->
    <g style="fill: #ffffff" transform="translate(209.017187 254.648313) scale(0.1 -0.1)">
     <defs>
      <path id="DejaVuSans-Bold-48" d="M 588 4666 
L 1791 4666 
L 1791 2888 
L 3566 2888 
L 3566 4666 
L 4769 4666 
L 4769 0 
L 3566 0 
L 3566 1978 
L 1791 1978 
L 1791 0 
L 588 0 
L 588 4666 
z
" transform="scale(0.015625)"/>
      <path id="DejaVuSans-Bold-62" d="M 2400 722 
Q 2759 722 2948 984 
Q 3138 1247 3138 1747 
Q 3138 2247 2948 2509 
Q 2759 2772 2400 2772 
Q 2041 2772 1848 2508 
Q 1656 2244 1656 1747 
Q 1656 1250 1848 986 
Q 2041 722 2400 722 
z
M 1656 2988 
Q 1888 3294 2169 3439 
Q 2450 3584 2816 3584 
Q 3463 3584 3878 3070 
Q 4294 2556 4294 1747 
Q 4294 938 3878 423 
Q 3463 -91 2816 -91 
Q 2450 -91 2169 54 
Q 1888 200 1656 506 
L 1656 0 
L 538 0 
L 538 4863 
L 1656 4863 
L 1656 2988 
z
" transform="scale(0.015625)"/>
      <path id="DejaVuSans-Bold-49" d="M 588 4666 
L 1791 4666 
L 1791 0 
L 588 0 
L 588 4666 
z
" transform="scale(0.015625)"/>
      <path id="DejaVuSans-Bold-78" d="M 1422 1791 
L 159 3500 
L 1344 3500 
L 2059 2463 
L 2784 3500 
L 3969 3500 
L 2706 1797 
L 4031 0 
L 2847 0 
L 2059 1106 
L 1281 0 
L 97 0 
L 1422 1791 
z
" transform="scale(0.015625)"/>
      <path id="DejaVuSans-Bold-28" d="M 2413 -844 
L 1484 -844 
Q 1006 -72 778 623 
Q 550 1319 550 2003 
Q 550 2688 779 3389 
Q 1009 4091 1484 4856 
L 2413 4856 
Q 2013 4116 1813 3408 
Q 1613 2700 1613 2009 
Q 1613 1319 1811 609 
Q 2009 -100 2413 -844 
z
" transform="scale(0.015625)"/>
      <path id="DejaVuSans-Bold-52" d="M 2297 2597 
Q 2675 2597 2839 2737 
Q 3003 2878 3003 3200 
Q 3003 3519 2839 3656 
Q 2675 3794 2297 3794 
L 1791 3794 
L 1791 2597 
L 2297 2597 
z
M 1791 1766 
L 1791 0 
L 588 0 
L 588 4666 
L 2425 4666 
Q 3347 4666 3776 4356 
Q 4206 4047 4206 3378 
Q 4206 2916 3982 2619 
Q 3759 2322 3309 2181 
Q 3556 2125 3751 1926 
Q 3947 1728 4147 1325 
L 4800 0 
L 3519 0 
L 2950 1159 
Q 2778 1509 2601 1637 
Q 2425 1766 2131 1766 
L 1791 1766 
z
" transform="scale(0.015625)"/>
      <path id="DejaVuSans-Bold-54" d="M 31 4666 
L 4331 4666 
L 4331 3756 
L 2784 3756 
L 2784 0 
L 1581 0 
L 1581 3756 
L 31 3756 
L 31 4666 
z
" transform="scale(0.015625)"/>
      <path id="DejaVuSans-Bold-29" d="M 513 -844 
Q 913 -100 1113 609 
Q 1313 1319 1313 2009 
Q 1313 2700 1113 3408 
Q 913 4116 513 4856 
L 1441 4856 
Q 1916 4091 2145 3389 
Q 2375 2688 2375 2003 
Q 2375 1319 2147 623 
Q 1919 -72 1441 -844 
L 513 -844 
z
" transform="scale(0.015625)"/>
     </defs>
     <use xlink:href="#DejaVuSans-Bold-48"/>
     <use xlink:href="#DejaVuSans-Bold-75" transform="translate(83.691406 0)"/>
     <use xlink:href="#DejaVuSans-Bold-62" transform="translate(154.882812 0)"/>
     <use xlink:href="#DejaVuSans-Bold-20" transform="translate(226.464844 0)"/>
     <use xlink:href="#DejaVuSans-Bold-49" transform="translate(261.279297 0)"/>
     <use xlink:href="#DejaVuSans-Bold-6e" transform="translate(298.486328 0)"/>
     <use xlink:href="#DejaVuSans-Bold-64" transform="translate(369.677734 0)"/>
     <use xlink:href="#DejaVuSans-Bold-65" transform="translate(441.259766 0)"/>
     <use xlink:href="#DejaVuSans-Bold-78" transform="translate(509.082031 0)"/>
     <use xlink:href="#DejaVuSans-Bold-20" transform="translate(573.583984 0)"/>
     <use xlink:href="#DejaVuSans-Bold-20" transform="translate(608.398438 0)"/>
     <use xlink:href="#DejaVuSans-Bold-28" transform="translate(643.212891 0)"/>
     <use xlink:href="#DejaVuSans-Bold-52" transform="translate(688.916016 0)"/>
     <use xlink:href="#DejaVuSans-Bold-6f" transform="translate(765.917969 0)"/>
     <use xlink:href="#DejaVuSans-Bold-75" transform="translate(834.619141 0)"/>
     <use xlink:href="#DejaVuSans-Bold-74" transform="translate(905.810547 0)"/>
     <use xlink:href="#DejaVuSans-Bold-69" transform="translate(953.613281 0)"/>
     <use xlink:href="#DejaVuSans-Bold-6e" transform="translate(987.890625 0)"/>
     <use xlink:href="#DejaVuSans-Bold-67" transform="translate(1059.082031 0)"/>
     <use xlink:href="#DejaVuSans-Bold-20" transform="translate(1130.664062 0)"/>
     <use xlink:href="#DejaVuSans-Bold-54" transform="translate(1165.478516 0)"/>
     <use xlink:href="#DejaVuSans-Bold-61" transform="translate(1220.816406 0)"/>
     <use xlink:href="#DejaVuSans-Bold-62" transform="translate(1288.296875 0)"/>
     <use xlink:href="#DejaVuSans-Bold-6c" transform="translate(1359.878906 0)"/>
     <use xlink:href="#DejaVuSans-Bold-65" transform="translate(1394.15625 0)"/>
     <use xlink:href="#DejaVuSans-Bold-29" transform="translate(1461.978516 0)"/>
    </g>
   </g>
   <g id="text_8">
    <!-- Rules &amp; -->
    <g style="fill: #2d2d2d" transform="translate(115.279734 301.644422) scale(0.09 -0.09)">
     <defs>
      <path id="DejaVuSans-Bold-73" d="M 3272 3391 
L 3272 2541 
Q 2913 2691 2578 2766 
Q 2244 2841 1947 2841 
Q 1628 2841 1473 2761 
Q 1319 2681 1319 2516 
Q 1319 2381 1436 2309 
Q 1553 2238 1856 2203 
L 2053 2175 
Q 2913 2066 3209 1816 
Q 3506 1566 3506 1031 
Q 3506 472 3093 190 
Q 2681 -91 1863 -91 
Q 1516 -91 1145 -36 
Q 775 19 384 128 
L 384 978 
Q 719 816 1070 734 
Q 1422 653 1784 653 
Q 2113 653 2278 743 
Q 2444 834 2444 1013 
Q 2444 1163 2330 1236 
Q 2216 1309 1875 1350 
L 1678 1375 
Q 931 1469 631 1722 
Q 331 1975 331 2491 
Q 331 3047 712 3315 
Q 1094 3584 1881 3584 
Q 2191 3584 2531 3537 
Q 2872 3491 3272 3391 
z
" transform="scale(0.015625)"/>
      <path id="DejaVuSans-Bold-26" d="M 2497 3097 
L 3775 1691 
Q 3941 1909 4027 2181 
Q 4113 2453 4128 2797 
L 5100 2797 
Q 5053 2228 4879 1784 
Q 4706 1341 4397 1006 
L 5313 0 
L 3988 0 
L 3681 341 
Q 3353 122 2990 15 
Q 2628 -91 2222 -91 
Q 1400 -91 892 342 
Q 384 775 384 1459 
Q 384 1916 607 2267 
Q 831 2619 1338 2950 
Q 1206 3116 1143 3281 
Q 1081 3447 1081 3628 
Q 1081 4138 1478 4444 
Q 1875 4750 2534 4750 
Q 2819 4750 3126 4704 
Q 3434 4659 3769 4569 
L 3769 3700 
Q 3475 3850 3212 3922 
Q 2950 3994 2700 3994 
Q 2459 3994 2326 3901 
Q 2194 3809 2194 3641 
Q 2194 3534 2270 3398 
Q 2347 3263 2497 3097 
z
M 1875 2322 
Q 1672 2175 1569 1989 
Q 1466 1803 1466 1581 
Q 1466 1222 1731 969 
Q 1997 716 2369 716 
Q 2578 716 2759 780 
Q 2941 844 3097 972 
L 1875 2322 
z
" transform="scale(0.015625)"/>
     </defs>
     <use xlink:href="#DejaVuSans-Bold-52"/>
     <use xlink:href="#DejaVuSans-Bold-75" transform="translate(77.001953 0)"/>
     <use xlink:href="#DejaVuSans-Bold-6c" transform="translate(148.193359 0)"/>
     <use xlink:href="#DejaVuSans-Bold-65" transform="translate(182.470703 0)"/>
     <use xlink:href="#DejaVuSans-Bold-73" transform="translate(250.292969 0)"/>
     <use xlink:href="#DejaVuSans-Bold-20" transform="translate(309.814453 0)"/>
     <use xlink:href="#DejaVuSans-Bold-26" transform="translate(344.628906 0)"/>
    </g>
    <!-- Protocols -->
    <g style="fill: #2d2d2d" transform="translate(110.880281 311.722453) scale(0.09 -0.09)">
     <defs>
      <path id="DejaVuSans-Bold-50" d="M 588 4666 
L 2584 4666 
Q 3475 4666 3951 4270 
Q 4428 3875 4428 3144 
Q 4428 2409 3951 2014 
Q 3475 1619 2584 1619 
L 1791 1619 
L 1791 0 
L 588 0 
L 588 4666 
z
M 1791 3794 
L 1791 2491 
L 2456 2491 
Q 2806 2491 2997 2661 
Q 3188 2831 3188 3144 
Q 3188 3456 2997 3625 
Q 2806 3794 2456 3794 
L 1791 3794 
z
" transform="scale(0.015625)"/>
      <path id="DejaVuSans-Bold-63" d="M 3366 3391 
L 3366 2478 
Q 3138 2634 2908 2709 
Q 2678 2784 2431 2784 
Q 1963 2784 1702 2511 
Q 1441 2238 1441 1747 
Q 1441 1256 1702 982 
Q 1963 709 2431 709 
Q 2694 709 2930 787 
Q 3166 866 3366 1019 
L 3366 103 
Q 3103 6 2833 -42 
Q 2563 -91 2291 -91 
Q 1344 -91 809 395 
Q 275 881 275 1747 
Q 275 2613 809 3098 
Q 1344 3584 2291 3584 
Q 2566 3584 2833 3536 
Q 3100 3488 3366 3391 
z
" transform="scale(0.015625)"/>
     </defs>
     <use xlink:href="#DejaVuSans-Bold-50"/>
     <use xlink:href="#DejaVuSans-Bold-72" transform="translate(73.291016 0)"/>
     <use xlink:href="#DejaVuSans-Bold-6f" transform="translate(122.607422 0)"/>
     <use xlink:href="#DejaVuSans-Bold-74" transform="translate(191.308594 0)"/>
     <use xlink:href="#DejaVuSans-Bold-6f" transform="translate(239.111328 0)"/>
     <use xlink:href="#DejaVuSans-Bold-63" transform="translate(307.8125 0)"/>
     <use xlink:href="#DejaVuSans-Bold-6f" transform="translate(367.089844 0)"/>
     <use xlink:href="#DejaVuSans-Bold-6c" transform="translate(435.791016 0)"/>
     <use xlink:href="#DejaVuSans-Bold-73" transform="translate(470.068359 0)"/>
    </g>
   </g>
   <g id="text_9">
    <!-- Projects -->
    <g style="fill: #2d2d2d" transform="translate(213.803297 306.648281) scale(0.09 -0.09)">
     <defs>
      <path id="DejaVuSans-Bold-6a" d="M 538 3500 
L 1656 3500 
L 1656 63 
Q 1656 -641 1318 -1011 
Q 981 -1381 341 -1381 
L -213 -1381 
L -213 -647 
L -19 -647 
Q 300 -647 419 -503 
Q 538 -359 538 63 
L 538 3500 
z
M 538 4863 
L 1656 4863 
L 1656 3950 
L 538 3950 
L 538 4863 
z
" transform="scale(0.015625)"/>
     </defs>
     <use xlink:href="#DejaVuSans-Bold-50"/>
     <use xlink:href="#DejaVuSans-Bold-72" transform="translate(73.291016 0)"/>
     <use xlink:href="#DejaVuSans-Bold-6f" transform="translate(122.607422 0)"/>
     <use xlink:href="#DejaVuSans-Bold-6a" transform="translate(191.308594 0)"/>
     <use xlink:href="#DejaVuSans-Bold-65" transform="translate(225.585938 0)"/>
     <use xlink:href="#DejaVuSans-Bold-63" transform="translate(293.408203 0)"/>
     <use xlink:href="#DejaVuSans-Bold-74" transform="translate(352.685547 0)"/>
     <use xlink:href="#DejaVuSans-Bold-73" transform="translate(400.488281 0)"/>
    </g>
   </g>
   <g id="text_10">
    <!-- References -->
    <g style="fill: #2d2d2d" transform="translate(305.896078 306.683437) scale(0.09 -0.09)">
     <defs>
      <path id="DejaVuSans-Bold-66" d="M 2841 4863 
L 2841 4128 
L 2222 4128 
Q 1984 4128 1890 4042 
Q 1797 3956 1797 3744 
L 1797 3500 
L 2753 3500 
L 2753 2700 
L 1797 2700 
L 1797 0 
L 678 0 
L 678 2700 
L 122 2700 
L 122 3500 
L 678 3500 
L 678 3744 
Q 678 4316 997 4589 
Q 1316 4863 1984 4863 
L 2841 4863 
z
" transform="scale(0.015625)"/>
     </defs>
     <use xlink:href="#DejaVuSans-Bold-52"/>
     <use xlink:href="#DejaVuSans-Bold-65" transform="translate(77.001953 0)"/>
     <use xlink:href="#DejaVuSans-Bold-66" transform="translate(144.824219 0)"/>
     <use xlink:href="#DejaVuSans-Bold-65" transform="translate(188.330078 0)"/>
     <use xlink:href="#DejaVuSans-Bold-72" transform="translate(256.152344 0)"/>
     <use xlink:href="#DejaVuSans-Bold-65" transform="translate(305.46875 0)"/>
     <use xlink:href="#DejaVuSans-Bold-6e" transform="translate(373.291016 0)"/>
     <use xlink:href="#DejaVuSans-Bold-63" transform="translate(444.482422 0)"/>
     <use xlink:href="#DejaVuSans-Bold-65" transform="translate(503.759766 0)"/>
     <use xlink:href="#DejaVuSans-Bold-73" transform="translate(571.582031 0)"/>
    </g>
   </g>
   <g id="text_11">
    <!-- SOP -->
    <g style="fill: #2d2d2d" transform="translate(423.723234 306.683437) scale(0.09 -0.09)">
     <defs>
      <path id="DejaVuSans-Bold-53" d="M 3834 4519 
L 3834 3531 
Q 3450 3703 3084 3790 
Q 2719 3878 2394 3878 
Q 1963 3878 1756 3759 
Q 1550 3641 1550 3391 
Q 1550 3203 1689 3098 
Q 1828 2994 2194 2919 
L 2706 2816 
Q 3484 2659 3812 2340 
Q 4141 2022 4141 1434 
Q 4141 663 3683 286 
Q 3225 -91 2284 -91 
Q 1841 -91 1394 -6 
Q 947 78 500 244 
L 500 1259 
Q 947 1022 1364 901 
Q 1781 781 2169 781 
Q 2563 781 2772 912 
Q 2981 1044 2981 1288 
Q 2981 1506 2839 1625 
Q 2697 1744 2272 1838 
L 1806 1941 
Q 1106 2091 782 2419 
Q 459 2747 459 3303 
Q 459 4000 909 4375 
Q 1359 4750 2203 4750 
Q 2588 4750 2994 4692 
Q 3400 4634 3834 4519 
z
" transform="scale(0.015625)"/>
      <path id="DejaVuSans-Bold-4f" d="M 2719 3878 
Q 2169 3878 1866 3472 
Q 1563 3066 1563 2328 
Q 1563 1594 1866 1187 
Q 2169 781 2719 781 
Q 3272 781 3575 1187 
Q 3878 1594 3878 2328 
Q 3878 3066 3575 3472 
Q 3272 3878 2719 3878 
z
M 2719 4750 
Q 3844 4750 4481 4106 
Q 5119 3463 5119 2328 
Q 5119 1197 4481 553 
Q 3844 -91 2719 -91 
Q 1597 -91 958 553 
Q 319 1197 319 2328 
Q 319 3463 958 4106 
Q 1597 4750 2719 4750 
z
" transform="scale(0.015625)"/>
     </defs>
     <use xlink:href="#DejaVuSans-Bold-53"/>
     <use xlink:href="#DejaVuSans-Bold-4f" transform="translate(72.021484 0)"/>
     <use xlink:href="#DejaVuSans-Bold-50" transform="translate(157.03125 0)"/>
    </g>
   </g>
   <g id="text_12">
    <!-- Top: compact routing signals (loaded every session) -->
    <g style="fill: #666666" transform="translate(173.595195 357.66) scale(0.085 -0.085)">
     <defs>
      <path id="DejaVuSans-Oblique-54" d="M 378 4666 
L 4325 4666 
L 4225 4134 
L 2559 4134 
L 1759 0 
L 1125 0 
L 1925 4134 
L 275 4134 
L 378 4666 
z
" transform="scale(0.015625)"/>
      <path id="DejaVuSans-Oblique-6f" d="M 1625 -91 
Q 1009 -91 651 289 
Q 294 669 294 1325 
Q 294 1706 417 2101 
Q 541 2497 738 2766 
Q 1047 3184 1428 3384 
Q 1809 3584 2291 3584 
Q 2888 3584 3255 3212 
Q 3622 2841 3622 2241 
Q 3622 1825 3500 1412 
Q 3378 1000 3181 728 
Q 2875 309 2494 109 
Q 2113 -91 1625 -91 
z
M 891 1344 
Q 891 869 1089 633 
Q 1288 397 1691 397 
Q 2269 397 2648 901 
Q 3028 1406 3028 2181 
Q 3028 2634 2825 2865 
Q 2622 3097 2228 3097 
Q 1903 3097 1650 2945 
Q 1397 2794 1197 2484 
Q 1050 2253 970 1956 
Q 891 1659 891 1344 
z
" transform="scale(0.015625)"/>
      <path id="DejaVuSans-Oblique-70" d="M 3175 2156 
Q 3175 2616 2975 2859 
Q 2775 3103 2400 3103 
Q 2144 3103 1911 2972 
Q 1678 2841 1497 2591 
Q 1319 2344 1212 1994 
Q 1106 1644 1106 1300 
Q 1106 863 1306 627 
Q 1506 391 1875 391 
Q 2147 391 2380 519 
Q 2613 647 2778 891 
Q 2956 1147 3065 1494 
Q 3175 1841 3175 2156 
z
M 1394 2969 
Q 1625 3272 1939 3428 
Q 2253 3584 2638 3584 
Q 3175 3584 3472 3232 
Q 3769 2881 3769 2247 
Q 3769 1728 3584 1258 
Q 3400 788 3053 416 
Q 2822 169 2531 39 
Q 2241 -91 1919 -91 
Q 1547 -91 1294 64 
Q 1041 219 916 525 
L 556 -1331 
L -19 -1331 
L 922 3500 
L 1497 3500 
L 1394 2969 
z
" transform="scale(0.015625)"/>
      <path id="DejaVuSans-Oblique-3a" d="M 978 3309 
L 1638 3309 
L 1484 2516 
L 825 2516 
L 978 3309 
z
M 488 794 
L 1147 794 
L 991 0 
L 331 0 
L 488 794 
z
" transform="scale(0.015625)"/>
      <path id="DejaVuSans-Oblique-20" transform="scale(0.015625)"/>
      <path id="DejaVuSans-Oblique-63" d="M 3431 3366 
L 3316 2797 
Q 3109 2947 2876 3022 
Q 2644 3097 2394 3097 
Q 2119 3097 1870 3000 
Q 1622 2903 1453 2725 
Q 1184 2453 1037 2087 
Q 891 1722 891 1331 
Q 891 859 1127 628 
Q 1363 397 1844 397 
Q 2081 397 2348 469 
Q 2616 541 2906 684 
L 2797 116 
Q 2547 13 2283 -39 
Q 2019 -91 1741 -91 
Q 1044 -91 669 257 
Q 294 606 294 1253 
Q 294 1797 489 2255 
Q 684 2713 1069 3078 
Q 1331 3328 1684 3456 
Q 2038 3584 2456 3584 
Q 2700 3584 2940 3529 
Q 3181 3475 3431 3366 
z
" transform="scale(0.015625)"/>
      <path id="DejaVuSans-Oblique-6d" d="M 5747 2113 
L 5338 0 
L 4763 0 
L 5166 2094 
Q 5191 2228 5203 2325 
Q 5216 2422 5216 2491 
Q 5216 2772 5059 2928 
Q 4903 3084 4622 3084 
Q 4203 3084 3875 2770 
Q 3547 2456 3450 1953 
L 3066 0 
L 2491 0 
L 2900 2094 
Q 2925 2209 2937 2307 
Q 2950 2406 2950 2484 
Q 2950 2769 2794 2926 
Q 2638 3084 2363 3084 
Q 1938 3084 1609 2770 
Q 1281 2456 1184 1953 
L 800 0 
L 225 0 
L 909 3500 
L 1484 3500 
L 1375 2956 
Q 1609 3263 1923 3423 
Q 2238 3584 2597 3584 
Q 2978 3584 3223 3384 
Q 3469 3184 3519 2828 
Q 3781 3197 4126 3390 
Q 4472 3584 4856 3584 
Q 5306 3584 5551 3325 
Q 5797 3066 5797 2591 
Q 5797 2488 5784 2364 
Q 5772 2241 5747 2113 
z
" transform="scale(0.015625)"/>
      <path id="DejaVuSans-Oblique-61" d="M 3438 1997 
L 3047 0 
L 2472 0 
L 2578 531 
Q 2325 219 2001 64 
Q 1678 -91 1281 -91 
Q 834 -91 548 182 
Q 263 456 263 884 
Q 263 1497 752 1853 
Q 1241 2209 2100 2209 
L 2900 2209 
L 2931 2363 
Q 2938 2388 2941 2417 
Q 2944 2447 2944 2509 
Q 2944 2788 2717 2942 
Q 2491 3097 2081 3097 
Q 1800 3097 1504 3025 
Q 1209 2953 897 2809 
L 997 3341 
Q 1322 3463 1633 3523 
Q 1944 3584 2234 3584 
Q 2853 3584 3176 3315 
Q 3500 3047 3500 2534 
Q 3500 2431 3484 2292 
Q 3469 2153 3438 1997 
z
M 2816 1759 
L 2241 1759 
Q 1534 1759 1195 1570 
Q 856 1381 856 984 
Q 856 709 1029 553 
Q 1203 397 1509 397 
Q 1978 397 2328 733 
Q 2678 1069 2791 1631 
L 2816 1759 
z
" transform="scale(0.015625)"/>
      <path id="DejaVuSans-Oblique-74" d="M 2706 3500 
L 2619 3053 
L 1472 3053 
L 1100 1153 
Q 1081 1047 1072 975 
Q 1063 903 1063 863 
Q 1063 663 1183 572 
Q 1303 481 1569 481 
L 2150 481 
L 2053 0 
L 1503 0 
Q 991 0 739 200 
Q 488 400 488 806 
Q 488 878 497 964 
Q 506 1050 525 1153 
L 897 3053 
L 409 3053 
L 500 3500 
L 978 3500 
L 1172 4494 
L 1747 4494 
L 1556 3500 
L 2706 3500 
z
" transform="scale(0.015625)"/>
      <path id="DejaVuSans-Oblique-72" d="M 2853 2969 
Q 2766 3016 2653 3041 
Q 2541 3066 2413 3066 
Q 1953 3066 1609 2717 
Q 1266 2369 1153 1784 
L 800 0 
L 225 0 
L 909 3500 
L 1484 3500 
L 1375 2956 
Q 1603 3259 1920 3421 
Q 2238 3584 2597 3584 
Q 2691 3584 2781 3573 
Q 2872 3563 2963 3538 
L 2853 2969 
z
" transform="scale(0.015625)"/>
      <path id="DejaVuSans-Oblique-75" d="M 428 1388 
L 838 3500 
L 1416 3500 
L 1006 1409 
Q 975 1256 961 1147 
Q 947 1038 947 966 
Q 947 700 1109 554 
Q 1272 409 1569 409 
Q 2031 409 2368 721 
Q 2706 1034 2809 1563 
L 3194 3500 
L 3769 3500 
L 3091 0 
L 2516 0 
L 2631 550 
Q 2388 244 2052 76 
Q 1716 -91 1338 -91 
Q 878 -91 622 161 
Q 366 413 366 863 
Q 366 956 381 1097 
Q 397 1238 428 1388 
z
" transform="scale(0.015625)"/>
      <path id="DejaVuSans-Oblique-69" d="M 1172 4863 
L 1747 4863 
L 1606 4134 
L 1031 4134 
L 1172 4863 
z
M 909 3500 
L 1484 3500 
L 800 0 
L 225 0 
L 909 3500 
z
" transform="scale(0.015625)"/>
      <path id="DejaVuSans-Oblique-6e" d="M 3566 2113 
L 3156 0 
L 2578 0 
L 2988 2091 
Q 3016 2238 3031 2350 
Q 3047 2463 3047 2528 
Q 3047 2791 2881 2937 
Q 2716 3084 2419 3084 
Q 1956 3084 1622 2776 
Q 1288 2469 1184 1941 
L 800 0 
L 225 0 
L 903 3500 
L 1478 3500 
L 1363 2950 
Q 1603 3253 1940 3418 
Q 2278 3584 2650 3584 
Q 3113 3584 3367 3334 
Q 3622 3084 3622 2631 
Q 3622 2519 3608 2391 
Q 3594 2263 3566 2113 
z
" transform="scale(0.015625)"/>
      <path id="DejaVuSans-Oblique-67" d="M 3816 3500 
L 3219 434 
Q 3047 -456 2561 -893 
Q 2075 -1331 1253 -1331 
Q 950 -1331 690 -1286 
Q 431 -1241 206 -1147 
L 313 -588 
Q 525 -725 762 -790 
Q 1000 -856 1269 -856 
Q 1816 -856 2167 -557 
Q 2519 -259 2631 300 
L 2681 563 
Q 2441 288 2122 144 
Q 1803 0 1434 0 
Q 903 0 598 351 
Q 294 703 294 1319 
Q 294 1803 478 2267 
Q 663 2731 997 3091 
Q 1219 3328 1514 3456 
Q 1809 3584 2131 3584 
Q 2484 3584 2746 3420 
Q 3009 3256 3138 2956 
L 3238 3500 
L 3816 3500 
z
M 2950 2216 
Q 2950 2641 2750 2872 
Q 2550 3103 2181 3103 
Q 1953 3103 1747 3012 
Q 1541 2922 1394 2759 
Q 1156 2491 1023 2127 
Q 891 1763 891 1375 
Q 891 944 1092 712 
Q 1294 481 1672 481 
Q 2219 481 2584 976 
Q 2950 1472 2950 2216 
z
" transform="scale(0.015625)"/>
      <path id="DejaVuSans-Oblique-73" d="M 3200 3397 
L 3091 2853 
Q 2863 2978 2609 3040 
Q 2356 3103 2088 3103 
Q 1634 3103 1373 2948 
Q 1113 2794 1113 2528 
Q 1113 2219 1719 2053 
Q 1766 2041 1788 2034 
L 1972 1978 
Q 2547 1819 2739 1644 
Q 2931 1469 2931 1166 
Q 2931 609 2489 259 
Q 2047 -91 1331 -91 
Q 1053 -91 747 -37 
Q 441 16 72 128 
L 184 722 
Q 500 559 806 475 
Q 1113 391 1394 391 
Q 1816 391 2080 572 
Q 2344 753 2344 1031 
Q 2344 1331 1650 1516 
L 1591 1531 
L 1394 1581 
Q 956 1697 753 1886 
Q 550 2075 550 2369 
Q 550 2928 970 3256 
Q 1391 3584 2113 3584 
Q 2397 3584 2667 3537 
Q 2938 3491 3200 3397 
z
" transform="scale(0.015625)"/>
      <path id="DejaVuSans-Oblique-6c" d="M 1172 4863 
L 1747 4863 
L 800 0 
L 225 0 
L 1172 4863 
z
" transform="scale(0.015625)"/>
      <path id="DejaVuSans-Oblique-28" d="M 2731 4856 
Q 1903 3822 1495 2892 
Q 1088 1963 1088 1100 
Q 1088 606 1206 120 
Q 1325 -366 1563 -844 
L 1063 -844 
Q 775 -306 634 201 
Q 494 709 494 1197 
Q 494 2125 923 3036 
Q 1353 3947 2222 4856 
L 2731 4856 
z
" transform="scale(0.015625)"/>
      <path id="DejaVuSans-Oblique-64" d="M 2675 525 
Q 2444 222 2128 65 
Q 1813 -91 1428 -91 
Q 903 -91 598 267 
Q 294 625 294 1247 
Q 294 1766 478 2236 
Q 663 2706 1013 3078 
Q 1244 3325 1534 3454 
Q 1825 3584 2144 3584 
Q 2481 3584 2739 3421 
Q 2997 3259 3138 2956 
L 3513 4863 
L 4091 4863 
L 3144 0 
L 2566 0 
L 2675 525 
z
M 891 1350 
Q 891 897 1095 644 
Q 1300 391 1663 391 
Q 1931 391 2161 520 
Q 2391 650 2566 903 
Q 2750 1166 2856 1509 
Q 2963 1853 2963 2188 
Q 2963 2622 2758 2865 
Q 2553 3109 2194 3109 
Q 1922 3109 1687 2981 
Q 1453 2853 1288 2613 
Q 1106 2353 998 2009 
Q 891 1666 891 1350 
z
" transform="scale(0.015625)"/>
      <path id="DejaVuSans-Oblique-65" d="M 3078 2063 
Q 3088 2113 3092 2166 
Q 3097 2219 3097 2272 
Q 3097 2653 2873 2875 
Q 2650 3097 2266 3097 
Q 1838 3097 1509 2826 
Q 1181 2556 1013 2059 
L 3078 2063 
z
M 3578 1613 
L 903 1613 
Q 884 1494 878 1425 
Q 872 1356 872 1306 
Q 872 872 1139 634 
Q 1406 397 1894 397 
Q 2269 397 2603 481 
Q 2938 566 3225 728 
L 3116 159 
Q 2806 34 2476 -28 
Q 2147 -91 1806 -91 
Q 1078 -91 686 257 
Q 294 606 294 1247 
Q 294 1794 489 2264 
Q 684 2734 1063 3103 
Q 1306 3334 1642 3459 
Q 1978 3584 2356 3584 
Q 2950 3584 3301 3228 
Q 3653 2872 3653 2272 
Q 3653 2128 3634 1964 
Q 3616 1800 3578 1613 
z
" transform="scale(0.015625)"/>
      <path id="DejaVuSans-Oblique-76" d="M 459 3500 
L 1069 3500 
L 1581 525 
L 3256 3500 
L 3866 3500 
L 1875 0 
L 1100 0 
L 459 3500 
z
" transform="scale(0.015625)"/>
      <path id="DejaVuSans-Oblique-79" d="M 1588 -325 
Q 1188 -997 936 -1164 
Q 684 -1331 294 -1331 
L -159 -1331 
L -63 -850 
L 269 -850 
Q 509 -850 678 -719 
Q 847 -588 1056 -206 
L 1234 128 
L 459 3500 
L 1069 3500 
L 1650 819 
L 3256 3500 
L 3859 3500 
L 1588 -325 
z
" transform="scale(0.015625)"/>
      <path id="DejaVuSans-Oblique-29" d="M -397 -844 
Q 434 191 840 1120 
Q 1247 2050 1247 2913 
Q 1247 3406 1130 3892 
Q 1013 4378 775 4856 
L 1275 4856 
Q 1563 4316 1703 3812 
Q 1844 3309 1844 2822 
Q 1844 1891 1411 973 
Q 978 56 116 -844 
L -397 -844 
z
" transform="scale(0.015625)"/>
     </defs>
     <use xlink:href="#DejaVuSans-Oblique-54"/>
     <use xlink:href="#DejaVuSans-Oblique-6f" transform="translate(48.708984 0)"/>
     <use xlink:href="#DejaVuSans-Oblique-70" transform="translate(109.890625 0)"/>
     <use xlink:href="#DejaVuSans-Oblique-3a" transform="translate(173.367188 0)"/>
     <use xlink:href="#DejaVuSans-Oblique-20" transform="translate(207.058594 0)"/>
     <use xlink:href="#DejaVuSans-Oblique-63" transform="translate(238.845703 0)"/>
     <use xlink:href="#DejaVuSans-Oblique-6f" transform="translate(293.826172 0)"/>
     <use xlink:href="#DejaVuSans-Oblique-6d" transform="translate(355.007812 0)"/>
     <use xlink:href="#DejaVuSans-Oblique-70" transform="translate(452.419922 0)"/>
     <use xlink:href="#DejaVuSans-Oblique-61" transform="translate(515.896484 0)"/>
     <use xlink:href="#DejaVuSans-Oblique-63" transform="translate(577.175781 0)"/>
     <use xlink:href="#DejaVuSans-Oblique-74" transform="translate(632.15625 0)"/>
     <use xlink:href="#DejaVuSans-Oblique-20" transform="translate(671.365234 0)"/>
     <use xlink:href="#DejaVuSans-Oblique-72" transform="translate(703.152344 0)"/>
     <use xlink:href="#DejaVuSans-Oblique-6f" transform="translate(744.265625 0)"/>
     <use xlink:href="#DejaVuSans-Oblique-75" transform="translate(805.447266 0)"/>
     <use xlink:href="#DejaVuSans-Oblique-74" transform="translate(868.826172 0)"/>
     <use xlink:href="#DejaVuSans-Oblique-69" transform="translate(908.035156 0)"/>
     <use xlink:href="#DejaVuSans-Oblique-6e" transform="translate(935.818359 0)"/>
     <use xlink:href="#DejaVuSans-Oblique-67" transform="translate(999.197266 0)"/>
     <use xlink:href="#DejaVuSans-Oblique-20" transform="translate(1062.673828 0)"/>
     <use xlink:href="#DejaVuSans-Oblique-73" transform="translate(1094.460938 0)"/>
     <use xlink:href="#DejaVuSans-Oblique-69" transform="translate(1146.560547 0)"/>
     <use xlink:href="#DejaVuSans-Oblique-67" transform="translate(1174.34375 0)"/>
     <use xlink:href="#DejaVuSans-Oblique-6e" transform="translate(1237.820312 0)"/>
     <use xlink:href="#DejaVuSans-Oblique-61" transform="translate(1301.199219 0)"/>
     <use xlink:href="#DejaVuSans-Oblique-6c" transform="translate(1362.478516 0)"/>
     <use xlink:href="#DejaVuSans-Oblique-73" transform="translate(1390.261719 0)"/>
     <use xlink:href="#DejaVuSans-Oblique-20" transform="translate(1442.361328 0)"/>
     <use xlink:href="#DejaVuSans-Oblique-28" transform="translate(1474.148438 0)"/>
     <use xlink:href="#DejaVuSans-Oblique-6c" transform="translate(1513.162109 0)"/>
     <use xlink:href="#DejaVuSans-Oblique-6f" transform="translate(1540.945312 0)"/>
     <use xlink:href="#DejaVuSans-Oblique-61" transform="translate(1602.126953 0)"/>
     <use xlink:href="#DejaVuSans-Oblique-64" transform="translate(1663.40625 0)"/>
     <use xlink:href="#DejaVuSans-Oblique-65" transform="translate(1726.882812 0)"/>
     <use xlink:href="#DejaVuSans-Oblique-64" transform="translate(1788.40625 0)"/>
     <use xlink:href="#DejaVuSans-Oblique-20" transform="translate(1851.882812 0)"/>
     <use xlink:href="#DejaVuSans-Oblique-65" transform="translate(1883.669922 0)"/>
     <use xlink:href="#DejaVuSans-Oblique-76" transform="translate(1945.193359 0)"/>
     <use xlink:href="#DejaVuSans-Oblique-65" transform="translate(2004.373047 0)"/>
     <use xlink:href="#DejaVuSans-Oblique-72" transform="translate(2065.896484 0)"/>
     <use xlink:href="#DejaVuSans-Oblique-79" transform="translate(2107.009766 0)"/>
     <use xlink:href="#DejaVuSans-Oblique-20" transform="translate(2166.189453 0)"/>
     <use xlink:href="#DejaVuSans-Oblique-73" transform="translate(2197.976562 0)"/>
     <use xlink:href="#DejaVuSans-Oblique-65" transform="translate(2250.076172 0)"/>
     <use xlink:href="#DejaVuSans-Oblique-73" transform="translate(2311.599609 0)"/>
     <use xlink:href="#DejaVuSans-Oblique-73" transform="translate(2363.699219 0)"/>
     <use xlink:href="#DejaVuSans-Oblique-69" transform="translate(2415.798828 0)"/>
     <use xlink:href="#DejaVuSans-Oblique-6f" transform="translate(2443.582031 0)"/>
     <use xlink:href="#DejaVuSans-Oblique-6e" transform="translate(2504.763672 0)"/>
     <use xlink:href="#DejaVuSans-Oblique-29" transform="translate(2568.142578 0)"/>
    </g>
   </g>
   <g id="text_13">
    <!-- Lower: complete procedures (loaded on demand) -->
    <g style="fill: #666666" transform="translate(179.134805 371.52) scale(0.085 -0.085)">
     <defs>
      <path id="DejaVuSans-Oblique-4c" d="M 1075 4666 
L 1709 4666 
L 909 525 
L 3181 525 
L 3078 0 
L 172 0 
L 1075 4666 
z
" transform="scale(0.015625)"/>
      <path id="DejaVuSans-Oblique-77" d="M 544 3500 
L 1113 3500 
L 1259 684 
L 2566 3500 
L 3231 3500 
L 3425 684 
L 4666 3500 
L 5241 3500 
L 3641 0 
L 2969 0 
L 2797 2900 
L 1459 0 
L 781 0 
L 544 3500 
z
" transform="scale(0.015625)"/>
     </defs>
     <use xlink:href="#DejaVuSans-Oblique-4c"/>
     <use xlink:href="#DejaVuSans-Oblique-6f" transform="translate(55.712891 0)"/>
     <use xlink:href="#DejaVuSans-Oblique-77" transform="translate(116.894531 0)"/>
     <use xlink:href="#DejaVuSans-Oblique-65" transform="translate(198.681641 0)"/>
     <use xlink:href="#DejaVuSans-Oblique-72" transform="translate(260.205078 0)"/>
     <use xlink:href="#DejaVuSans-Oblique-3a" transform="translate(301.318359 0)"/>
     <use xlink:href="#DejaVuSans-Oblique-20" transform="translate(335.009766 0)"/>
     <use xlink:href="#DejaVuSans-Oblique-63" transform="translate(366.796875 0)"/>
     <use xlink:href="#DejaVuSans-Oblique-6f" transform="translate(421.777344 0)"/>
     <use xlink:href="#DejaVuSans-Oblique-6d" transform="translate(482.958984 0)"/>
     <use xlink:href="#DejaVuSans-Oblique-70" transform="translate(580.371094 0)"/>
     <use xlink:href="#DejaVuSans-Oblique-6c" transform="translate(643.847656 0)"/>
     <use xlink:href="#DejaVuSans-Oblique-65" transform="translate(671.630859 0)"/>
     <use xlink:href="#DejaVuSans-Oblique-74" transform="translate(733.154297 0)"/>
     <use xlink:href="#DejaVuSans-Oblique-65" transform="translate(772.363281 0)"/>
     <use xlink:href="#DejaVuSans-Oblique-20" transform="translate(833.886719 0)"/>
     <use xlink:href="#DejaVuSans-Oblique-70" transform="translate(865.673828 0)"/>
     <use xlink:href="#DejaVuSans-Oblique-72" transform="translate(929.150391 0)"/>
     <use xlink:href="#DejaVuSans-Oblique-6f" transform="translate(970.263672 0)"/>
     <use xlink:href="#DejaVuSans-Oblique-63" transform="translate(1031.445312 0)"/>
     <use xlink:href="#DejaVuSans-Oblique-65" transform="translate(1086.425781 0)"/>
     <use xlink:href="#DejaVuSans-Oblique-64" transform="translate(1147.949219 0)"/>
     <use xlink:href="#DejaVuSans-Oblique-75" transform="translate(1211.425781 0)"/>
     <use xlink:href="#DejaVuSans-Oblique-72" transform="translate(1274.804688 0)"/>
     <use xlink:href="#DejaVuSans-Oblique-65" transform="translate(1315.917969 0)"/>
     <use xlink:href="#DejaVuSans-Oblique-73" transform="translate(1377.441406 0)"/>
     <use xlink:href="#DejaVuSans-Oblique-20" transform="translate(1429.541016 0)"/>
     <use xlink:href="#DejaVuSans-Oblique-28" transform="translate(1461.328125 0)"/>
     <use xlink:href="#DejaVuSans-Oblique-6c" transform="translate(1500.341797 0)"/>
     <use xlink:href="#DejaVuSans-Oblique-6f" transform="translate(1528.125 0)"/>
     <use xlink:href="#DejaVuSans-Oblique-61" transform="translate(1589.306641 0)"/>
     <use xlink:href="#DejaVuSans-Oblique-64" transform="translate(1650.585938 0)"/>
     <use xlink:href="#DejaVuSans-Oblique-65" transform="translate(1714.0625 0)"/>
     <use xlink:href="#DejaVuSans-Oblique-64" transform="translate(1775.585938 0)"/>
     <use xlink:href="#DejaVuSans-Oblique-20" transform="translate(1839.0625 0)"/>
     <use xlink:href="#DejaVuSans-Oblique-6f" transform="translate(1870.849609 0)"/>
     <use xlink:href="#DejaVuSans-Oblique-6e" transform="translate(1932.03125 0)"/>
     <use xlink:href="#DejaVuSans-Oblique-20" transform="translate(1995.410156 0)"/>
     <use xlink:href="#DejaVuSans-Oblique-64" transform="translate(2027.197266 0)"/>
     <use xlink:href="#DejaVuSans-Oblique-65" transform="translate(2090.673828 0)"/>
     <use xlink:href="#DejaVuSans-Oblique-6d" transform="translate(2152.197266 0)"/>
     <use xlink:href="#DejaVuSans-Oblique-61" transform="translate(2249.609375 0)"/>
     <use xlink:href="#DejaVuSans-Oblique-6e" transform="translate(2310.888672 0)"/>
     <use xlink:href="#DejaVuSans-Oblique-64" transform="translate(2374.267578 0)"/>
     <use xlink:href="#DejaVuSans-Oblique-29" transform="translate(2437.744141 0)"/>
    </g>
   </g>
  </g>
 </g>
 <defs>
  <clipPath id="p8e85f619a7">
   <rect x="7.2" y="7.2" width="554.4" height="396"/>
  </clipPath>
 </defs>
</svg>
