<?xml version="1.0" encoding="utf-8" standalone="no"?>
<!DOCTYPE svg PUBLIC "-//W3C//DTD SVG 1.1//EN"
  "http://www.w3.org/Graphics/SVG/1.1/DTD/svg11.dtd">
<svg xmlns:xlink="http://www.w3.org/1999/xlink" width="640.8pt" height="532.2925pt" viewBox="0 0 640.8 532.2925" xmlns="http://www.w3.org/2000/svg" version="1.1">
 <metadata>
  <rdf:RDF xmlns:dc="http://purl.org/dc/elements/1.1/" xmlns:cc="http://creativecommons.org/ns#" xmlns:rdf="http://www.w3.org/1999/02/22-rdf-syntax-ns#">
   <cc:Work>
    <dc:type rdf:resource="http://purl.org/dc/dcmitype/StillImage"/>
    <dc:date>2026-03-29T15:35:19.723208</dc:date>
    <dc:format>image/svg+xml</dc:format>
    <dc:creator>
     <cc:Agent>
      <dc:title>Matplotlib v3.10.8, https://matplotlib.org/</dc:title>
     </cc:Agent>
    </dc:creator>
   </cc:Work>
  </rdf:RDF>
 </metadata>
 <defs>
  <style type="text/css">*{stroke-linejoin: round; stroke-linecap: butt}</style>
 </defs>
 <g id="figure_1">
  <g id="patch_1">
   <path d="M 0 532.2925 
L 640.8 532.2925 
L 640.8 0 
L 0 0 
z
" style="fill: #ffffff"/>
  </g>
  <g id="axes_1">
   <g id="line2d_1">
    <path d="M 137.7 67.633962 
L 137.7 477.241928 
" clip-path="url(#p6582fc869f)" style="fill: none; stroke-dasharray: 5.55,2.4; stroke-dashoffset: 0; stroke: #cccccc; stroke-width: 1.5"/>
   </g>
   <g id="line2d_2">
    <path d="M 503.1 67.633962 
L 503.1 477.241928 
" clip-path="url(#p6582fc869f)" style="fill: none; stroke-dasharray: 5.55,2.4; stroke-dashoffset: 0; stroke: #cccccc; stroke-width: 1.5"/>
   </g>
   <g id="line2d_3">
    <path d="M 320.4 67.633962 
L 320.4 477.241928 
" clip-path="url(#p6582fc869f)" style="fill: none; stroke: #d4963a; stroke-opacity: 0.4; stroke-width: 4; stroke-linecap: square"/>
   </g>
   <g id="patch_2">
    <path d="M 72.45 70.767575 
L 202.95 70.767575 
Q 209.214 70.767575 209.214 65.395667 
L 209.214 16.15318 
Q 209.214 10.781272 202.95 10.781272 
L 72.45 10.781272 
Q 66.186 10.781272 66.186 16.15318 
L 66.186 65.395667 
Q 66.186 70.767575 72.45 70.767575 
z
" clip-path="url(#p6582fc869f)" style="fill: #4a7fb5; opacity: 0.9; stroke: #ffffff; stroke-width: 1.5; stroke-linejoin: miter"/>
   </g>
   <g id="patch_3">
    <path d="M 255.15 70.767575 
L 385.65 70.767575 
Q 391.914 70.767575 391.914 65.395667 
L 391.914 16.15318 
Q 391.914 10.781272 385.65 10.781272 
L 255.15 10.781272 
Q 248.886 10.781272 248.886 16.15318 
L 248.886 65.395667 
Q 248.886 70.767575 255.15 70.767575 
z
" clip-path="url(#p6582fc869f)" style="fill: #d4963a; opacity: 0.9; stroke: #ffffff; stroke-width: 1.5; stroke-linejoin: miter"/>
   </g>
   <g id="patch_4">
    <path d="M 437.85 70.767575 
L 568.35 70.767575 
Q 574.614 70.767575 574.614 65.395667 
L 574.614 16.15318 
Q 574.614 10.781272 568.35 10.781272 
L 437.85 10.781272 
Q 431.586 10.781272 431.586 16.15318 
L 431.586 65.395667 
Q 431.586 70.767575 437.85 70.767575 
z
" clip-path="url(#p6582fc869f)" style="fill: #7fb174; opacity: 0.9; stroke: #ffffff; stroke-width: 1.5; stroke-linejoin: miter"/>
   </g>
   <g id="text_1">
    <!-- Physician -->
    <g style="fill: #ffffff" transform="translate(108.236328 37.565002) scale(0.11 -0.11)">
     <defs>
      <path id="DejaVuSans-Bold-50" d="M 588 4666 
L 2584 4666 
Q 3475 4666 3951 4270 
Q 4428 3875 4428 3144 
Q 4428 2409 3951 2014 
Q 3475 1619 2584 1619 
L 1791 1619 
L 1791 0 
L 588 0 
L 588 4666 
z
M 1791 3794 
L 1791 2491 
L 2456 2491 
Q 2806 2491 2997 2661 
Q 3188 2831 3188 3144 
Q 3188 3456 2997 3625 
Q 2806 3794 2456 3794 
L 1791 3794 
z
" transform="scale(0.015625)"/>
      <path id="DejaVuSans-Bold-68" d="M 4056 2131 
L 4056 0 
L 2931 0 
L 2931 347 
L 2931 1625 
Q 2931 2084 2911 2256 
Q 2891 2428 2841 2509 
Q 2775 2619 2662 2680 
Q 2550 2741 2406 2741 
Q 2056 2741 1856 2470 
Q 1656 2200 1656 1722 
L 1656 0 
L 538 0 
L 538 4863 
L 1656 4863 
L 1656 2988 
Q 1909 3294 2193 3439 
Q 2478 3584 2822 3584 
Q 3428 3584 3742 3212 
Q 4056 2841 4056 2131 
z
" transform="scale(0.015625)"/>
      <path id="DejaVuSans-Bold-79" d="M 78 3500 
L 1197 3500 
L 2138 1125 
L 2938 3500 
L 4056 3500 
L 2584 -331 
Q 2363 -916 2067 -1148 
Q 1772 -1381 1288 -1381 
L 641 -1381 
L 641 -647 
L 991 -647 
Q 1275 -647 1404 -556 
Q 1534 -466 1606 -231 
L 1638 -134 
L 78 3500 
z
" transform="scale(0.015625)"/>
      <path id="DejaVuSans-Bold-73" d="M 3272 3391 
L 3272 2541 
Q 2913 2691 2578 2766 
Q 2244 2841 1947 2841 
Q 1628 2841 1473 2761 
Q 1319 2681 1319 2516 
Q 1319 2381 1436 2309 
Q 1553 2238 1856 2203 
L 2053 2175 
Q 2913 2066 3209 1816 
Q 3506 1566 3506 1031 
Q 3506 472 3093 190 
Q 2681 -91 1863 -91 
Q 1516 -91 1145 -36 
Q 775 19 384 128 
L 384 978 
Q 719 816 1070 734 
Q 1422 653 1784 653 
Q 2113 653 2278 743 
Q 2444 834 2444 1013 
Q 2444 1163 2330 1236 
Q 2216 1309 1875 1350 
L 1678 1375 
Q 931 1469 631 1722 
Q 331 1975 331 2491 
Q 331 3047 712 3315 
Q 1094 3584 1881 3584 
Q 2191 3584 2531 3537 
Q 2872 3491 3272 3391 
z
" transform="scale(0.015625)"/>
      <path id="DejaVuSans-Bold-69" d="M 538 3500 
L 1656 3500 
L 1656 0 
L 538 0 
L 538 3500 
z
M 538 4863 
L 1656 4863 
L 1656 3950 
L 538 3950 
L 538 4863 
z
" transform="scale(0.015625)"/>
      <path id="DejaVuSans-Bold-63" d="M 3366 3391 
L 3366 2478 
Q 3138 2634 2908 2709 
Q 2678 2784 2431 2784 
Q 1963 2784 1702 2511 
Q 1441 2238 1441 1747 
Q 1441 1256 1702 982 
Q 1963 709 2431 709 
Q 2694 709 2930 787 
Q 3166 866 3366 1019 
L 3366 103 
Q 3103 6 2833 -42 
Q 2563 -91 2291 -91 
Q 1344 -91 809 395 
Q 275 881 275 1747 
Q 275 2613 809 3098 
Q 1344 3584 2291 3584 
Q 2566 3584 2833 3536 
Q 3100 3488 3366 3391 
z
" transform="scale(0.015625)"/>
      <path id="DejaVuSans-Bold-61" d="M 2106 1575 
Q 1756 1575 1579 1456 
Q 1403 1338 1403 1106 
Q 1403 894 1545 773 
Q 1688 653 1941 653 
Q 2256 653 2472 879 
Q 2688 1106 2688 1447 
L 2688 1575 
L 2106 1575 
z
M 3816 1997 
L 3816 0 
L 2688 0 
L 2688 519 
Q 2463 200 2181 54 
Q 1900 -91 1497 -91 
Q 953 -91 614 226 
Q 275 544 275 1050 
Q 275 1666 698 1953 
Q 1122 2241 2028 2241 
L 2688 2241 
L 2688 2328 
Q 2688 2594 2478 2717 
Q 2269 2841 1825 2841 
Q 1466 2841 1156 2769 
Q 847 2697 581 2553 
L 581 3406 
Q 941 3494 1303 3539 
Q 1666 3584 2028 3584 
Q 2975 3584 3395 3211 
Q 3816 2838 3816 1997 
z
" transform="scale(0.015625)"/>
      <path id="DejaVuSans-Bold-6e" d="M 4056 2131 
L 4056 0 
L 2931 0 
L 2931 347 
L 2931 1631 
Q 2931 2084 2911 2256 
Q 2891 2428 2841 2509 
Q 2775 2619 2662 2680 
Q 2550 2741 2406 2741 
Q 2056 2741 1856 2470 
Q 1656 2200 1656 1722 
L 1656 0 
L 538 0 
L 538 3500 
L 1656 3500 
L 1656 2988 
Q 1909 3294 2193 3439 
Q 2478 3584 2822 3584 
Q 3428 3584 3742 3212 
Q 4056 2841 4056 2131 
z
" transform="scale(0.015625)"/>
     </defs>
     <use xlink:href="#DejaVuSans-Bold-50"/>
     <use xlink:href="#DejaVuSans-Bold-68" transform="translate(73.291016 0)"/>
     <use xlink:href="#DejaVuSans-Bold-79" transform="translate(144.482422 0)"/>
     <use xlink:href="#DejaVuSans-Bold-73" transform="translate(209.667969 0)"/>
     <use xlink:href="#DejaVuSans-Bold-69" transform="translate(269.189453 0)"/>
     <use xlink:href="#DejaVuSans-Bold-63" transform="translate(303.466797 0)"/>
     <use xlink:href="#DejaVuSans-Bold-69" transform="translate(362.744141 0)"/>
     <use xlink:href="#DejaVuSans-Bold-61" transform="translate(397.021484 0)"/>
     <use xlink:href="#DejaVuSans-Bold-6e" transform="translate(464.501953 0)"/>
    </g>
    <!-- + AI Agent -->
    <g style="fill: #ffffff" transform="translate(104.491172 49.968533) scale(0.11 -0.11)">
     <defs>
      <path id="DejaVuSans-Bold-2b" d="M 3053 4013 
L 3053 2375 
L 4684 2375 
L 4684 1638 
L 3053 1638 
L 3053 0 
L 2309 0 
L 2309 1638 
L 678 1638 
L 678 2375 
L 2309 2375 
L 2309 4013 
L 3053 4013 
z
" transform="scale(0.015625)"/>
      <path id="DejaVuSans-Bold-20" transform="scale(0.015625)"/>
      <path id="DejaVuSans-Bold-41" d="M 3419 850 
L 1538 850 
L 1241 0 
L 31 0 
L 1759 4666 
L 3194 4666 
L 4922 0 
L 3713 0 
L 3419 850 
z
M 1838 1716 
L 3116 1716 
L 2478 3572 
L 1838 1716 
z
" transform="scale(0.015625)"/>
      <path id="DejaVuSans-Bold-49" d="M 588 4666 
L 1791 4666 
L 1791 0 
L 588 0 
L 588 4666 
z
" transform="scale(0.015625)"/>
      <path id="DejaVuSans-Bold-67" d="M 2919 594 
Q 2688 288 2409 144 
Q 2131 0 1766 0 
Q 1125 0 706 504 
Q 288 1009 288 1791 
Q 288 2575 706 3076 
Q 1125 3578 1766 3578 
Q 2131 3578 2409 3434 
Q 2688 3291 2919 2981 
L 2919 3500 
L 4044 3500 
L 4044 353 
Q 4044 -491 3511 -936 
Q 2978 -1381 1966 -1381 
Q 1638 -1381 1331 -1331 
Q 1025 -1281 716 -1178 
L 716 -306 
Q 1009 -475 1290 -558 
Q 1572 -641 1856 -641 
Q 2406 -641 2662 -400 
Q 2919 -159 2919 353 
L 2919 594 
z
M 2181 2772 
Q 1834 2772 1640 2515 
Q 1447 2259 1447 1791 
Q 1447 1309 1634 1061 
Q 1822 813 2181 813 
Q 2531 813 2725 1069 
Q 2919 1325 2919 1791 
Q 2919 2259 2725 2515 
Q 2531 2772 2181 2772 
z
" transform="scale(0.015625)"/>
      <path id="DejaVuSans-Bold-65" d="M 4031 1759 
L 4031 1441 
L 1416 1441 
Q 1456 1047 1700 850 
Q 1944 653 2381 653 
Q 2734 653 3104 758 
Q 3475 863 3866 1075 
L 3866 213 
Q 3469 63 3072 -14 
Q 2675 -91 2278 -91 
Q 1328 -91 801 392 
Q 275 875 275 1747 
Q 275 2603 792 3093 
Q 1309 3584 2216 3584 
Q 3041 3584 3536 3087 
Q 4031 2591 4031 1759 
z
M 2881 2131 
Q 2881 2450 2695 2645 
Q 2509 2841 2209 2841 
Q 1884 2841 1681 2658 
Q 1478 2475 1428 2131 
L 2881 2131 
z
" transform="scale(0.015625)"/>
      <path id="DejaVuSans-Bold-74" d="M 1759 4494 
L 1759 3500 
L 2913 3500 
L 2913 2700 
L 1759 2700 
L 1759 1216 
Q 1759 972 1856 886 
Q 1953 800 2241 800 
L 2816 800 
L 2816 0 
L 1856 0 
Q 1194 0 917 276 
Q 641 553 641 1216 
L 641 2700 
L 84 2700 
L 84 3500 
L 641 3500 
L 641 4494 
L 1759 4494 
z
" transform="scale(0.015625)"/>
     </defs>
     <use xlink:href="#DejaVuSans-Bold-2b"/>
     <use xlink:href="#DejaVuSans-Bold-20" transform="translate(83.789062 0)"/>
     <use xlink:href="#DejaVuSans-Bold-41" transform="translate(118.603516 0)"/>
     <use xlink:href="#DejaVuSans-Bold-49" transform="translate(195.996094 0)"/>
     <use xlink:href="#DejaVuSans-Bold-20" transform="translate(233.203125 0)"/>
     <use xlink:href="#DejaVuSans-Bold-41" transform="translate(268.017578 0)"/>
     <use xlink:href="#DejaVuSans-Bold-67" transform="translate(345.410156 0)"/>
     <use xlink:href="#DejaVuSans-Bold-65" transform="translate(416.992188 0)"/>
     <use xlink:href="#DejaVuSans-Bold-6e" transform="translate(484.814453 0)"/>
     <use xlink:href="#DejaVuSans-Bold-74" transform="translate(556.005859 0)"/>
    </g>
   </g>
   <g id="text_2">
    <!-- Shared Hub -->
    <g style="fill: #ffffff" transform="translate(284.063047 37.60797) scale(0.11 -0.11)">
     <defs>
      <path id="DejaVuSans-Bold-53" d="M 3834 4519 
L 3834 3531 
Q 3450 3703 3084 3790 
Q 2719 3878 2394 3878 
Q 1963 3878 1756 3759 
Q 1550 3641 1550 3391 
Q 1550 3203 1689 3098 
Q 1828 2994 2194 2919 
L 2706 2816 
Q 3484 2659 3812 2340 
Q 4141 2022 4141 1434 
Q 4141 663 3683 286 
Q 3225 -91 2284 -91 
Q 1841 -91 1394 -6 
Q 947 78 500 244 
L 500 1259 
Q 947 1022 1364 901 
Q 1781 781 2169 781 
Q 2563 781 2772 912 
Q 2981 1044 2981 1288 
Q 2981 1506 2839 1625 
Q 2697 1744 2272 1838 
L 1806 1941 
Q 1106 2091 782 2419 
Q 459 2747 459 3303 
Q 459 4000 909 4375 
Q 1359 4750 2203 4750 
Q 2588 4750 2994 4692 
Q 3400 4634 3834 4519 
z
" transform="scale(0.015625)"/>
      <path id="DejaVuSans-Bold-72" d="M 3138 2547 
Q 2991 2616 2845 2648 
Q 2700 2681 2553 2681 
Q 2122 2681 1889 2404 
Q 1656 2128 1656 1613 
L 1656 0 
L 538 0 
L 538 3500 
L 1656 3500 
L 1656 2925 
Q 1872 3269 2151 3426 
Q 2431 3584 2822 3584 
Q 2878 3584 2943 3579 
Q 3009 3575 3134 3559 
L 3138 2547 
z
" transform="scale(0.015625)"/>
      <path id="DejaVuSans-Bold-64" d="M 2919 2988 
L 2919 4863 
L 4044 4863 
L 4044 0 
L 2919 0 
L 2919 506 
Q 2688 197 2409 53 
Q 2131 -91 1766 -91 
Q 1119 -91 703 423 
Q 288 938 288 1747 
Q 288 2556 703 3070 
Q 1119 3584 1766 3584 
Q 2128 3584 2408 3439 
Q 2688 3294 2919 2988 
z
M 2181 722 
Q 2541 722 2730 984 
Q 2919 1247 2919 1747 
Q 2919 2247 2730 2509 
Q 2541 2772 2181 2772 
Q 1825 2772 1636 2509 
Q 1447 2247 1447 1747 
Q 1447 1247 1636 984 
Q 1825 722 2181 722 
z
" transform="scale(0.015625)"/>
      <path id="DejaVuSans-Bold-48" d="M 588 4666 
L 1791 4666 
L 1791 2888 
L 3566 2888 
L 3566 4666 
L 4769 4666 
L 4769 0 
L 3566 0 
L 3566 1978 
L 1791 1978 
L 1791 0 
L 588 0 
L 588 4666 
z
" transform="scale(0.015625)"/>
      <path id="DejaVuSans-Bold-75" d="M 500 1363 
L 500 3500 
L 1625 3500 
L 1625 3150 
Q 1625 2866 1622 2436 
Q 1619 2006 1619 1863 
Q 1619 1441 1641 1255 
Q 1663 1069 1716 984 
Q 1784 875 1895 815 
Q 2006 756 2150 756 
Q 2500 756 2700 1025 
Q 2900 1294 2900 1772 
L 2900 3500 
L 4019 3500 
L 4019 0 
L 2900 0 
L 2900 506 
Q 2647 200 2364 54 
Q 2081 -91 1741 -91 
Q 1134 -91 817 281 
Q 500 653 500 1363 
z
" transform="scale(0.015625)"/>
      <path id="DejaVuSans-Bold-62" d="M 2400 722 
Q 2759 722 2948 984 
Q 3138 1247 3138 1747 
Q 3138 2247 2948 2509 
Q 2759 2772 2400 2772 
Q 2041 2772 1848 2508 
Q 1656 2244 1656 1747 
Q 1656 1250 1848 986 
Q 2041 722 2400 722 
z
M 1656 2988 
Q 1888 3294 2169 3439 
Q 2450 3584 2816 3584 
Q 3463 3584 3878 3070 
Q 4294 2556 4294 1747 
Q 4294 938 3878 423 
Q 3463 -91 2816 -91 
Q 2450 -91 2169 54 
Q 1888 200 1656 506 
L 1656 0 
L 538 0 
L 538 4863 
L 1656 4863 
L 1656 2988 
z
" transform="scale(0.015625)"/>
     </defs>
     <use xlink:href="#DejaVuSans-Bold-53"/>
     <use xlink:href="#DejaVuSans-Bold-68" transform="translate(72.021484 0)"/>
     <use xlink:href="#DejaVuSans-Bold-61" transform="translate(143.212891 0)"/>
     <use xlink:href="#DejaVuSans-Bold-72" transform="translate(210.693359 0)"/>
     <use xlink:href="#DejaVuSans-Bold-65" transform="translate(260.009766 0)"/>
     <use xlink:href="#DejaVuSans-Bold-64" transform="translate(327.832031 0)"/>
     <use xlink:href="#DejaVuSans-Bold-20" transform="translate(399.414062 0)"/>
     <use xlink:href="#DejaVuSans-Bold-48" transform="translate(434.228516 0)"/>
     <use xlink:href="#DejaVuSans-Bold-75" transform="translate(517.919922 0)"/>
     <use xlink:href="#DejaVuSans-Bold-62" transform="translate(589.111328 0)"/>
    </g>
    <!-- (Project Page) -->
    <g style="fill: #ffffff" transform="translate(276.164531 49.925564) scale(0.11 -0.11)">
     <defs>
      <path id="DejaVuSans-Bold-28" d="M 2413 -844 
L 1484 -844 
Q 1006 -72 778 623 
Q 550 1319 550 2003 
Q 550 2688 779 3389 
Q 1009 4091 1484 4856 
L 2413 4856 
Q 2013 4116 1813 3408 
Q 1613 2700 1613 2009 
Q 1613 1319 1811 609 
Q 2009 -100 2413 -844 
z
" transform="scale(0.015625)"/>
      <path id="DejaVuSans-Bold-6f" d="M 2203 2784 
Q 1831 2784 1636 2517 
Q 1441 2250 1441 1747 
Q 1441 1244 1636 976 
Q 1831 709 2203 709 
Q 2569 709 2762 976 
Q 2956 1244 2956 1747 
Q 2956 2250 2762 2517 
Q 2569 2784 2203 2784 
z
M 2203 3584 
Q 3106 3584 3614 3096 
Q 4122 2609 4122 1747 
Q 4122 884 3614 396 
Q 3106 -91 2203 -91 
Q 1297 -91 786 396 
Q 275 884 275 1747 
Q 275 2609 786 3096 
Q 1297 3584 2203 3584 
z
" transform="scale(0.015625)"/>
      <path id="DejaVuSans-Bold-6a" d="M 538 3500 
L 1656 3500 
L 1656 63 
Q 1656 -641 1318 -1011 
Q 981 -1381 341 -1381 
L -213 -1381 
L -213 -647 
L -19 -647 
Q 300 -647 419 -503 
Q 538 -359 538 63 
L 538 3500 
z
M 538 4863 
L 1656 4863 
L 1656 3950 
L 538 3950 
L 538 4863 
z
" transform="scale(0.015625)"/>
      <path id="DejaVuSans-Bold-29" d="M 513 -844 
Q 913 -100 1113 609 
Q 1313 1319 1313 2009 
Q 1313 2700 1113 3408 
Q 913 4116 513 4856 
L 1441 4856 
Q 1916 4091 2145 3389 
Q 2375 2688 2375 2003 
Q 2375 1319 2147 623 
Q 1919 -72 1441 -844 
L 513 -844 
z
" transform="scale(0.015625)"/>
     </defs>
     <use xlink:href="#DejaVuSans-Bold-28"/>
     <use xlink:href="#DejaVuSans-Bold-50" transform="translate(45.703125 0)"/>
     <use xlink:href="#DejaVuSans-Bold-72" transform="translate(118.994141 0)"/>
     <use xlink:href="#DejaVuSans-Bold-6f" transform="translate(168.310547 0)"/>
     <use xlink:href="#DejaVuSans-Bold-6a" transform="translate(237.011719 0)"/>
     <use xlink:href="#DejaVuSans-Bold-65" transform="translate(271.289062 0)"/>
     <use xlink:href="#DejaVuSans-Bold-63" transform="translate(339.111328 0)"/>
     <use xlink:href="#DejaVuSans-Bold-74" transform="translate(398.388672 0)"/>
     <use xlink:href="#DejaVuSans-Bold-20" transform="translate(446.191406 0)"/>
     <use xlink:href="#DejaVuSans-Bold-50" transform="translate(481.005859 0)"/>
     <use xlink:href="#DejaVuSans-Bold-61" transform="translate(551.671875 0)"/>
     <use xlink:href="#DejaVuSans-Bold-67" transform="translate(619.152344 0)"/>
     <use xlink:href="#DejaVuSans-Bold-65" transform="translate(690.734375 0)"/>
     <use xlink:href="#DejaVuSans-Bold-29" transform="translate(758.556641 0)"/>
    </g>
   </g>
   <g id="text_3">
    <!-- Research Assistant -->
    <g style="fill: #ffffff" transform="translate(443.769609 37.60797) scale(0.11 -0.11)">
     <defs>
      <path id="DejaVuSans-Bold-52" d="M 2297 2597 
Q 2675 2597 2839 2737 
Q 3003 2878 3003 3200 
Q 3003 3519 2839 3656 
Q 2675 3794 2297 3794 
L 1791 3794 
L 1791 2597 
L 2297 2597 
z
M 1791 1766 
L 1791 0 
L 588 0 
L 588 4666 
L 2425 4666 
Q 3347 4666 3776 4356 
Q 4206 4047 4206 3378 
Q 4206 2916 3982 2619 
Q 3759 2322 3309 2181 
Q 3556 2125 3751 1926 
Q 3947 1728 4147 1325 
L 4800 0 
L 3519 0 
L 2950 1159 
Q 2778 1509 2601 1637 
Q 2425 1766 2131 1766 
L 1791 1766 
z
" transform="scale(0.015625)"/>
     </defs>
     <use xlink:href="#DejaVuSans-Bold-52"/>
     <use xlink:href="#DejaVuSans-Bold-65" transform="translate(77.001953 0)"/>
     <use xlink:href="#DejaVuSans-Bold-73" transform="translate(144.824219 0)"/>
     <use xlink:href="#DejaVuSans-Bold-65" transform="translate(204.345703 0)"/>
     <use xlink:href="#DejaVuSans-Bold-61" transform="translate(272.167969 0)"/>
     <use xlink:href="#DejaVuSans-Bold-72" transform="translate(339.648438 0)"/>
     <use xlink:href="#DejaVuSans-Bold-63" transform="translate(388.964844 0)"/>
     <use xlink:href="#DejaVuSans-Bold-68" transform="translate(448.242188 0)"/>
     <use xlink:href="#DejaVuSans-Bold-20" transform="translate(519.433594 0)"/>
     <use xlink:href="#DejaVuSans-Bold-41" transform="translate(554.248047 0)"/>
     <use xlink:href="#DejaVuSans-Bold-73" transform="translate(631.640625 0)"/>
     <use xlink:href="#DejaVuSans-Bold-73" transform="translate(691.162109 0)"/>
     <use xlink:href="#DejaVuSans-Bold-69" transform="translate(750.683594 0)"/>
     <use xlink:href="#DejaVuSans-Bold-73" transform="translate(784.960938 0)"/>
     <use xlink:href="#DejaVuSans-Bold-74" transform="translate(844.482422 0)"/>
     <use xlink:href="#DejaVuSans-Bold-61" transform="translate(892.285156 0)"/>
     <use xlink:href="#DejaVuSans-Bold-6e" transform="translate(959.765625 0)"/>
     <use xlink:href="#DejaVuSans-Bold-74" transform="translate(1030.957031 0)"/>
    </g>
    <!-- + AI Agent -->
    <g style="fill: #ffffff" transform="translate(469.891172 49.925564) scale(0.11 -0.11)">
     <use xlink:href="#DejaVuSans-Bold-2b"/>
     <use xlink:href="#DejaVuSans-Bold-20" transform="translate(83.789062 0)"/>
     <use xlink:href="#DejaVuSans-Bold-41" transform="translate(118.603516 0)"/>
     <use xlink:href="#DejaVuSans-Bold-49" transform="translate(195.996094 0)"/>
     <use xlink:href="#DejaVuSans-Bold-20" transform="translate(233.203125 0)"/>
     <use xlink:href="#DejaVuSans-Bold-41" transform="translate(268.017578 0)"/>
     <use xlink:href="#DejaVuSans-Bold-67" transform="translate(345.410156 0)"/>
     <use xlink:href="#DejaVuSans-Bold-65" transform="translate(416.992188 0)"/>
     <use xlink:href="#DejaVuSans-Bold-6e" transform="translate(484.814453 0)"/>
     <use xlink:href="#DejaVuSans-Bold-74" transform="translate(556.005859 0)"/>
    </g>
   </g>
   <g id="line2d_4">
    <path d="M 137.7 128.067924 
L 311.004 128.067924 
" clip-path="url(#p6582fc869f)" style="fill: none; stroke: #4a7fb5; stroke-width: 2.8"/>
   </g>
   <g id="text_4">
    <!-- Write task + instructions -->
    <g style="fill: #4a7fb5" transform="translate(147.897734 113.141832) scale(0.115 -0.115)">
     <defs>
      <path id="DejaVuSans-Bold-57" d="M 191 4666 
L 1344 4666 
L 2150 1275 
L 2950 4666 
L 4109 4666 
L 4909 1275 
L 5716 4666 
L 6859 4666 
L 5759 0 
L 4372 0 
L 3525 3547 
L 2688 0 
L 1300 0 
L 191 4666 
z
" transform="scale(0.015625)"/>
      <path id="DejaVuSans-Bold-6b" d="M 538 4863 
L 1656 4863 
L 1656 2216 
L 2944 3500 
L 4244 3500 
L 2534 1894 
L 4378 0 
L 3022 0 
L 1656 1459 
L 1656 0 
L 538 0 
L 538 4863 
z
" transform="scale(0.015625)"/>
     </defs>
     <use xlink:href="#DejaVuSans-Bold-57"/>
     <use xlink:href="#DejaVuSans-Bold-72" transform="translate(108.552734 0)"/>
     <use xlink:href="#DejaVuSans-Bold-69" transform="translate(157.869141 0)"/>
     <use xlink:href="#DejaVuSans-Bold-74" transform="translate(192.146484 0)"/>
     <use xlink:href="#DejaVuSans-Bold-65" transform="translate(239.949219 0)"/>
     <use xlink:href="#DejaVuSans-Bold-20" transform="translate(307.771484 0)"/>
     <use xlink:href="#DejaVuSans-Bold-74" transform="translate(342.585938 0)"/>
     <use xlink:href="#DejaVuSans-Bold-61" transform="translate(390.388672 0)"/>
     <use xlink:href="#DejaVuSans-Bold-73" transform="translate(457.869141 0)"/>
     <use xlink:href="#DejaVuSans-Bold-6b" transform="translate(517.390625 0)"/>
     <use xlink:href="#DejaVuSans-Bold-20" transform="translate(583.894531 0)"/>
     <use xlink:href="#DejaVuSans-Bold-2b" transform="translate(618.708984 0)"/>
     <use xlink:href="#DejaVuSans-Bold-20" transform="translate(702.498047 0)"/>
     <use xlink:href="#DejaVuSans-Bold-69" transform="translate(737.3125 0)"/>
     <use xlink:href="#DejaVuSans-Bold-6e" transform="translate(771.589844 0)"/>
     <use xlink:href="#DejaVuSans-Bold-73" transform="translate(842.78125 0)"/>
     <use xlink:href="#DejaVuSans-Bold-74" transform="translate(902.302734 0)"/>
     <use xlink:href="#DejaVuSans-Bold-72" transform="translate(950.105469 0)"/>
     <use xlink:href="#DejaVuSans-Bold-75" transform="translate(999.421875 0)"/>
     <use xlink:href="#DejaVuSans-Bold-63" transform="translate(1070.613281 0)"/>
     <use xlink:href="#DejaVuSans-Bold-74" transform="translate(1129.890625 0)"/>
     <use xlink:href="#DejaVuSans-Bold-69" transform="translate(1177.693359 0)"/>
     <use xlink:href="#DejaVuSans-Bold-6f" transform="translate(1211.970703 0)"/>
     <use xlink:href="#DejaVuSans-Bold-6e" transform="translate(1280.671875 0)"/>
     <use xlink:href="#DejaVuSans-Bold-73" transform="translate(1351.863281 0)"/>
    </g>
   </g>
   <g id="line2d_5">
    <path d="M 320.4 195.216771 
L 493.704 195.216771 
" clip-path="url(#p6582fc869f)" style="fill: none; stroke-dasharray: 10.36,4.48; stroke-dashoffset: 0; stroke: #7fb174; stroke-width: 2.8"/>
   </g>
   <g id="text_5">
    <!-- Read context -->
    <g style="fill: #7fb174" transform="translate(368.86668 180.290679) scale(0.115 -0.115)">
     <defs>
      <path id="DejaVuSans-Bold-78" d="M 1422 1791 
L 159 3500 
L 1344 3500 
L 2059 2463 
L 2784 3500 
L 3969 3500 
L 2706 1797 
L 4031 0 
L 2847 0 
L 2059 1106 
L 1281 0 
L 97 0 
L 1422 1791 
z
" transform="scale(0.015625)"/>
     </defs>
     <use xlink:href="#DejaVuSans-Bold-52"/>
     <use xlink:href="#DejaVuSans-Bold-65" transform="translate(77.001953 0)"/>
     <use xlink:href="#DejaVuSans-Bold-61" transform="translate(144.824219 0)"/>
     <use xlink:href="#DejaVuSans-Bold-64" transform="translate(212.304688 0)"/>
     <use xlink:href="#DejaVuSans-Bold-20" transform="translate(283.886719 0)"/>
     <use xlink:href="#DejaVuSans-Bold-63" transform="translate(318.701172 0)"/>
     <use xlink:href="#DejaVuSans-Bold-6f" transform="translate(377.978516 0)"/>
     <use xlink:href="#DejaVuSans-Bold-6e" transform="translate(446.679688 0)"/>
     <use xlink:href="#DejaVuSans-Bold-74" transform="translate(517.871094 0)"/>
     <use xlink:href="#DejaVuSans-Bold-65" transform="translate(565.673828 0)"/>
     <use xlink:href="#DejaVuSans-Bold-78" transform="translate(633.496094 0)"/>
     <use xlink:href="#DejaVuSans-Bold-74" transform="translate(697.998047 0)"/>
    </g>
   </g>
   <g id="line2d_6">
    <path d="M 503.1 262.365618 
L 329.796 262.365618 
" clip-path="url(#p6582fc869f)" style="fill: none; stroke: #7fb174; stroke-width: 2.8"/>
   </g>
   <g id="text_6">
    <!-- Write results + questions -->
    <g style="fill: #7fb174" transform="translate(329.120703 247.439526) scale(0.115 -0.115)">
     <defs>
      <path id="DejaVuSans-Bold-6c" d="M 538 4863 
L 1656 4863 
L 1656 0 
L 538 0 
L 538 4863 
z
" transform="scale(0.015625)"/>
      <path id="DejaVuSans-Bold-71" d="M 2181 2772 
Q 1825 2772 1636 2509 
Q 1447 2247 1447 1747 
Q 1447 1247 1636 984 
Q 1825 722 2181 722 
Q 2541 722 2730 984 
Q 2919 1247 2919 1747 
Q 2919 2247 2730 2509 
Q 2541 2772 2181 2772 
z
M 2919 506 
Q 2688 197 2409 53 
Q 2131 -91 1766 -91 
Q 1119 -91 703 423 
Q 288 938 288 1747 
Q 288 2556 703 3067 
Q 1119 3578 1766 3578 
Q 2131 3578 2409 3434 
Q 2688 3291 2919 2981 
L 2919 3500 
L 4044 3500 
L 4044 -1331 
L 2919 -1331 
L 2919 506 
z
" transform="scale(0.015625)"/>
     </defs>
     <use xlink:href="#DejaVuSans-Bold-57"/>
     <use xlink:href="#DejaVuSans-Bold-72" transform="translate(108.552734 0)"/>
     <use xlink:href="#DejaVuSans-Bold-69" transform="translate(157.869141 0)"/>
     <use xlink:href="#DejaVuSans-Bold-74" transform="translate(192.146484 0)"/>
     <use xlink:href="#DejaVuSans-Bold-65" transform="translate(239.949219 0)"/>
     <use xlink:href="#DejaVuSans-Bold-20" transform="translate(307.771484 0)"/>
     <use xlink:href="#DejaVuSans-Bold-72" transform="translate(342.585938 0)"/>
     <use xlink:href="#DejaVuSans-Bold-65" transform="translate(391.902344 0)"/>
     <use xlink:href="#DejaVuSans-Bold-73" transform="translate(459.724609 0)"/>
     <use xlink:href="#DejaVuSans-Bold-75" transform="translate(519.246094 0)"/>
     <use xlink:href="#DejaVuSans-Bold-6c" transform="translate(590.4375 0)"/>
     <use xlink:href="#DejaVuSans-Bold-74" transform="translate(624.714844 0)"/>
     <use xlink:href="#DejaVuSans-Bold-73" transform="translate(672.517578 0)"/>
     <use xlink:href="#DejaVuSans-Bold-20" transform="translate(732.039062 0)"/>
     <use xlink:href="#DejaVuSans-Bold-2b" transform="translate(766.853516 0)"/>
     <use xlink:href="#DejaVuSans-Bold-20" transform="translate(850.642578 0)"/>
     <use xlink:href="#DejaVuSans-Bold-71" transform="translate(885.457031 0)"/>
     <use xlink:href="#DejaVuSans-Bold-75" transform="translate(957.039062 0)"/>
     <use xlink:href="#DejaVuSans-Bold-65" transform="translate(1028.230469 0)"/>
     <use xlink:href="#DejaVuSans-Bold-73" transform="translate(1096.052734 0)"/>
     <use xlink:href="#DejaVuSans-Bold-74" transform="translate(1155.574219 0)"/>
     <use xlink:href="#DejaVuSans-Bold-69" transform="translate(1203.376953 0)"/>
     <use xlink:href="#DejaVuSans-Bold-6f" transform="translate(1237.654297 0)"/>
     <use xlink:href="#DejaVuSans-Bold-6e" transform="translate(1306.355469 0)"/>
     <use xlink:href="#DejaVuSans-Bold-73" transform="translate(1377.546875 0)"/>
    </g>
   </g>
   <g id="line2d_7">
    <path d="M 320.4 329.514465 
L 147.096 329.514465 
" clip-path="url(#p6582fc869f)" style="fill: none; stroke-dasharray: 10.36,4.48; stroke-dashoffset: 0; stroke: #4a7fb5; stroke-width: 2.8"/>
   </g>
   <g id="text_7">
    <!-- Read results -->
    <g style="fill: #4a7fb5" transform="translate(188.331914 314.588373) scale(0.115 -0.115)">
     <use xlink:href="#DejaVuSans-Bold-52"/>
     <use xlink:href="#DejaVuSans-Bold-65" transform="translate(77.001953 0)"/>
     <use xlink:href="#DejaVuSans-Bold-61" transform="translate(144.824219 0)"/>
     <use xlink:href="#DejaVuSans-Bold-64" transform="translate(212.304688 0)"/>
     <use xlink:href="#DejaVuSans-Bold-20" transform="translate(283.886719 0)"/>
     <use xlink:href="#DejaVuSans-Bold-72" transform="translate(318.701172 0)"/>
     <use xlink:href="#DejaVuSans-Bold-65" transform="translate(368.017578 0)"/>
     <use xlink:href="#DejaVuSans-Bold-73" transform="translate(435.839844 0)"/>
     <use xlink:href="#DejaVuSans-Bold-75" transform="translate(495.361328 0)"/>
     <use xlink:href="#DejaVuSans-Bold-6c" transform="translate(566.552734 0)"/>
     <use xlink:href="#DejaVuSans-Bold-74" transform="translate(600.830078 0)"/>
     <use xlink:href="#DejaVuSans-Bold-73" transform="translate(648.632812 0)"/>
    </g>
   </g>
   <g id="line2d_8">
    <path d="M 137.7 396.663312 
L 311.004 396.663312 
" clip-path="url(#p6582fc869f)" style="fill: none; stroke: #4a7fb5; stroke-width: 2.8"/>
   </g>
   <g id="text_8">
    <!-- Write review + next step -->
    <g style="fill: #4a7fb5" transform="translate(148.223867 381.73722) scale(0.115 -0.115)">
     <defs>
      <path id="DejaVuSans-Bold-76" d="M 97 3500 
L 1216 3500 
L 2088 1081 
L 2956 3500 
L 4078 3500 
L 2700 0 
L 1472 0 
L 97 3500 
z
" transform="scale(0.015625)"/>
      <path id="DejaVuSans-Bold-77" d="M 225 3500 
L 1313 3500 
L 1900 1088 
L 2491 3500 
L 3425 3500 
L 4013 1113 
L 4603 3500 
L 5691 3500 
L 4769 0 
L 3547 0 
L 2956 2406 
L 2369 0 
L 1147 0 
L 225 3500 
z
" transform="scale(0.015625)"/>
      <path id="DejaVuSans-Bold-70" d="M 1656 506 
L 1656 -1331 
L 538 -1331 
L 538 3500 
L 1656 3500 
L 1656 2988 
Q 1888 3294 2169 3439 
Q 2450 3584 2816 3584 
Q 3463 3584 3878 3070 
Q 4294 2556 4294 1747 
Q 4294 938 3878 423 
Q 3463 -91 2816 -91 
Q 2450 -91 2169 54 
Q 1888 200 1656 506 
z
M 2400 2772 
Q 2041 2772 1848 2508 
Q 1656 2244 1656 1747 
Q 1656 1250 1848 986 
Q 2041 722 2400 722 
Q 2759 722 2948 984 
Q 3138 1247 3138 1747 
Q 3138 2247 2948 2509 
Q 2759 2772 2400 2772 
z
" transform="scale(0.015625)"/>
     </defs>
     <use xlink:href="#DejaVuSans-Bold-57"/>
     <use xlink:href="#DejaVuSans-Bold-72" transform="translate(108.552734 0)"/>
     <use xlink:href="#DejaVuSans-Bold-69" transform="translate(157.869141 0)"/>
     <use xlink:href="#DejaVuSans-Bold-74" transform="translate(192.146484 0)"/>
     <use xlink:href="#DejaVuSans-Bold-65" transform="translate(239.949219 0)"/>
     <use xlink:href="#DejaVuSans-Bold-20" transform="translate(307.771484 0)"/>
     <use xlink:href="#DejaVuSans-Bold-72" transform="translate(342.585938 0)"/>
     <use xlink:href="#DejaVuSans-Bold-65" transform="translate(391.902344 0)"/>
     <use xlink:href="#DejaVuSans-Bold-76" transform="translate(459.724609 0)"/>
     <use xlink:href="#DejaVuSans-Bold-69" transform="translate(524.910156 0)"/>
     <use xlink:href="#DejaVuSans-Bold-65" transform="translate(559.1875 0)"/>
     <use xlink:href="#DejaVuSans-Bold-77" transform="translate(627.009766 0)"/>
     <use xlink:href="#DejaVuSans-Bold-20" transform="translate(719.392578 0)"/>
     <use xlink:href="#DejaVuSans-Bold-2b" transform="translate(754.207031 0)"/>
     <use xlink:href="#DejaVuSans-Bold-20" transform="translate(837.996094 0)"/>
     <use xlink:href="#DejaVuSans-Bold-6e" transform="translate(872.810547 0)"/>
     <use xlink:href="#DejaVuSans-Bold-65" transform="translate(944.001953 0)"/>
     <use xlink:href="#DejaVuSans-Bold-78" transform="translate(1011.824219 0)"/>
     <use xlink:href="#DejaVuSans-Bold-74" transform="translate(1076.326172 0)"/>
     <use xlink:href="#DejaVuSans-Bold-20" transform="translate(1124.128906 0)"/>
     <use xlink:href="#DejaVuSans-Bold-73" transform="translate(1158.943359 0)"/>
     <use xlink:href="#DejaVuSans-Bold-74" transform="translate(1218.464844 0)"/>
     <use xlink:href="#DejaVuSans-Bold-65" transform="translate(1266.267578 0)"/>
     <use xlink:href="#DejaVuSans-Bold-70" transform="translate(1334.089844 0)"/>
    </g>
   </g>
   <g id="text_9">
    <!-- Time -->
    <g style="fill: #666666" transform="translate(22.281172 89.96755) scale(0.11 -0.11)">
     <defs>
      <path id="DejaVuSans-Oblique-54" d="M 378 4666 
L 4325 4666 
L 4225 4134 
L 2559 4134 
L 1759 0 
L 1125 0 
L 1925 4134 
L 275 4134 
L 378 4666 
z
" transform="scale(0.015625)"/>
      <path id="DejaVuSans-Oblique-69" d="M 1172 4863 
L 1747 4863 
L 1606 4134 
L 1031 4134 
L 1172 4863 
z
M 909 3500 
L 1484 3500 
L 800 0 
L 225 0 
L 909 3500 
z
" transform="scale(0.015625)"/>
      <path id="DejaVuSans-Oblique-6d" d="M 5747 2113 
L 5338 0 
L 4763 0 
L 5166 2094 
Q 5191 2228 5203 2325 
Q 5216 2422 5216 2491 
Q 5216 2772 5059 2928 
Q 4903 3084 4622 3084 
Q 4203 3084 3875 2770 
Q 3547 2456 3450 1953 
L 3066 0 
L 2491 0 
L 2900 2094 
Q 2925 2209 2937 2307 
Q 2950 2406 2950 2484 
Q 2950 2769 2794 2926 
Q 2638 3084 2363 3084 
Q 1938 3084 1609 2770 
Q 1281 2456 1184 1953 
L 800 0 
L 225 0 
L 909 3500 
L 1484 3500 
L 1375 2956 
Q 1609 3263 1923 3423 
Q 2238 3584 2597 3584 
Q 2978 3584 3223 3384 
Q 3469 3184 3519 2828 
Q 3781 3197 4126 3390 
Q 4472 3584 4856 3584 
Q 5306 3584 5551 3325 
Q 5797 3066 5797 2591 
Q 5797 2488 5784 2364 
Q 5772 2241 5747 2113 
z
" transform="scale(0.015625)"/>
      <path id="DejaVuSans-Oblique-65" d="M 3078 2063 
Q 3088 2113 3092 2166 
Q 3097 2219 3097 2272 
Q 3097 2653 2873 2875 
Q 2650 3097 2266 3097 
Q 1838 3097 1509 2826 
Q 1181 2556 1013 2059 
L 3078 2063 
z
M 3578 1613 
L 903 1613 
Q 884 1494 878 1425 
Q 872 1356 872 1306 
Q 872 872 1139 634 
Q 1406 397 1894 397 
Q 2269 397 2603 481 
Q 2938 566 3225 728 
L 3116 159 
Q 2806 34 2476 -28 
Q 2147 -91 1806 -91 
Q 1078 -91 686 257 
Q 294 606 294 1247 
Q 294 1794 489 2264 
Q 684 2734 1063 3103 
Q 1306 3334 1642 3459 
Q 1978 3584 2356 3584 
Q 2950 3584 3301 3228 
Q 3653 2872 3653 2272 
Q 3653 2128 3634 1964 
Q 3616 1800 3578 1613 
z
" transform="scale(0.015625)"/>
     </defs>
     <use xlink:href="#DejaVuSans-Oblique-54"/>
     <use xlink:href="#DejaVuSans-Oblique-69" transform="translate(61.083984 0)"/>
     <use xlink:href="#DejaVuSans-Oblique-6d" transform="translate(88.867188 0)"/>
     <use xlink:href="#DejaVuSans-Oblique-65" transform="translate(186.279297 0)"/>
    </g>
   </g>
   <g id="line2d_9">
    <path d="M 35.91 110.161565 
L 35.91 432.47603 
" clip-path="url(#p6582fc869f)" style="fill: none; stroke: #666666; stroke-width: 1.8; stroke-linecap: square"/>
   </g>
   <g id="text_10">
    <!-- Write -->
    <g style="fill: #666666" transform="translate(211.323437 500.145957) scale(0.1 -0.1)">
     <use xlink:href="#DejaVuSans-Bold-57"/>
     <use xlink:href="#DejaVuSans-Bold-72" transform="translate(108.552734 0)"/>
     <use xlink:href="#DejaVuSans-Bold-69" transform="translate(157.869141 0)"/>
     <use xlink:href="#DejaVuSans-Bold-74" transform="translate(192.146484 0)"/>
     <use xlink:href="#DejaVuSans-Bold-65" transform="translate(239.949219 0)"/>
    </g>
   </g>
   <g id="line2d_10">
    <path d="M 252.54 497.386582 
L 297.954 497.386582 
" clip-path="url(#p6582fc869f)" style="fill: none; stroke: #666666; stroke-width: 2.2"/>
   </g>
   <g id="line2d_11">
    <path d="M 346.5 497.386582 
L 391.914 497.386582 
" clip-path="url(#p6582fc869f)" style="fill: none; stroke-dasharray: 8.14,3.52; stroke-dashoffset: 0; stroke: #666666; stroke-width: 2.2"/>
   </g>
   <g id="text_11">
    <!-- Read -->
    <g style="fill: #666666" transform="translate(409.14 500.145957) scale(0.1 -0.1)">
     <use xlink:href="#DejaVuSans-Bold-52"/>
     <use xlink:href="#DejaVuSans-Bold-65" transform="translate(77.001953 0)"/>
     <use xlink:href="#DejaVuSans-Bold-61" transform="translate(144.824219 0)"/>
     <use xlink:href="#DejaVuSans-Bold-64" transform="translate(212.304688 0)"/>
    </g>
   </g>
   <g id="text_12">
    <!-- Cycle repeats — no synchronous meetings required -->
    <g style="fill: #666666" transform="translate(177.732578 522.804844) scale(0.11 -0.11)">
     <defs>
      <path id="DejaVuSans-Oblique-43" d="M 4447 4306 
L 4319 3641 
Q 4019 3944 3683 4091 
Q 3347 4238 2956 4238 
Q 2422 4238 2017 3981 
Q 1613 3725 1319 3200 
Q 1131 2863 1032 2486 
Q 934 2109 934 1728 
Q 934 1091 1264 756 
Q 1594 422 2222 422 
Q 2656 422 3056 561 
Q 3456 700 3834 978 
L 3688 231 
Q 3316 72 2936 -9 
Q 2556 -91 2175 -91 
Q 1278 -91 773 396 
Q 269 884 269 1753 
Q 269 2309 461 2846 
Q 653 3384 1013 3828 
Q 1394 4300 1883 4525 
Q 2372 4750 3022 4750 
Q 3422 4750 3780 4639 
Q 4138 4528 4447 4306 
z
" transform="scale(0.015625)"/>
      <path id="DejaVuSans-Oblique-79" d="M 1588 -325 
Q 1188 -997 936 -1164 
Q 684 -1331 294 -1331 
L -159 -1331 
L -63 -850 
L 269 -850 
Q 509 -850 678 -719 
Q 847 -588 1056 -206 
L 1234 128 
L 459 3500 
L 1069 3500 
L 1650 819 
L 3256 3500 
L 3859 3500 
L 1588 -325 
z
" transform="scale(0.015625)"/>
      <path id="DejaVuSans-Oblique-63" d="M 3431 3366 
L 3316 2797 
Q 3109 2947 2876 3022 
Q 2644 3097 2394 3097 
Q 2119 3097 1870 3000 
Q 1622 2903 1453 2725 
Q 1184 2453 1037 2087 
Q 891 1722 891 1331 
Q 891 859 1127 628 
Q 1363 397 1844 397 
Q 2081 397 2348 469 
Q 2616 541 2906 684 
L 2797 116 
Q 2547 13 2283 -39 
Q 2019 -91 1741 -91 
Q 1044 -91 669 257 
Q 294 606 294 1253 
Q 294 1797 489 2255 
Q 684 2713 1069 3078 
Q 1331 3328 1684 3456 
Q 2038 3584 2456 3584 
Q 2700 3584 2940 3529 
Q 3181 3475 3431 3366 
z
" transform="scale(0.015625)"/>
      <path id="DejaVuSans-Oblique-6c" d="M 1172 4863 
L 1747 4863 
L 800 0 
L 225 0 
L 1172 4863 
z
" transform="scale(0.015625)"/>
      <path id="DejaVuSans-Oblique-20" transform="scale(0.015625)"/>
      <path id="DejaVuSans-Oblique-72" d="M 2853 2969 
Q 2766 3016 2653 3041 
Q 2541 3066 2413 3066 
Q 1953 3066 1609 2717 
Q 1266 2369 1153 1784 
L 800 0 
L 225 0 
L 909 3500 
L 1484 3500 
L 1375 2956 
Q 1603 3259 1920 3421 
Q 2238 3584 2597 3584 
Q 2691 3584 2781 3573 
Q 2872 3563 2963 3538 
L 2853 2969 
z
" transform="scale(0.015625)"/>
      <path id="DejaVuSans-Oblique-70" d="M 3175 2156 
Q 3175 2616 2975 2859 
Q 2775 3103 2400 3103 
Q 2144 3103 1911 2972 
Q 1678 2841 1497 2591 
Q 1319 2344 1212 1994 
Q 1106 1644 1106 1300 
Q 1106 863 1306 627 
Q 1506 391 1875 391 
Q 2147 391 2380 519 
Q 2613 647 2778 891 
Q 2956 1147 3065 1494 
Q 3175 1841 3175 2156 
z
M 1394 2969 
Q 1625 3272 1939 3428 
Q 2253 3584 2638 3584 
Q 3175 3584 3472 3232 
Q 3769 2881 3769 2247 
Q 3769 1728 3584 1258 
Q 3400 788 3053 416 
Q 2822 169 2531 39 
Q 2241 -91 1919 -91 
Q 1547 -91 1294 64 
Q 1041 219 916 525 
L 556 -1331 
L -19 -1331 
L 922 3500 
L 1497 3500 
L 1394 2969 
z
" transform="scale(0.015625)"/>
      <path id="DejaVuSans-Oblique-61" d="M 3438 1997 
L 3047 0 
L 2472 0 
L 2578 531 
Q 2325 219 2001 64 
Q 1678 -91 1281 -91 
Q 834 -91 548 182 
Q 263 456 263 884 
Q 263 1497 752 1853 
Q 1241 2209 2100 2209 
L 2900 2209 
L 2931 2363 
Q 2938 2388 2941 2417 
Q 2944 2447 2944 2509 
Q 2944 2788 2717 2942 
Q 2491 3097 2081 3097 
Q 1800 3097 1504 3025 
Q 1209 2953 897 2809 
L 997 3341 
Q 1322 3463 1633 3523 
Q 1944 3584 2234 3584 
Q 2853 3584 3176 3315 
Q 3500 3047 3500 2534 
Q 3500 2431 3484 2292 
Q 3469 2153 3438 1997 
z
M 2816 1759 
L 2241 1759 
Q 1534 1759 1195 1570 
Q 856 1381 856 984 
Q 856 709 1029 553 
Q 1203 397 1509 397 
Q 1978 397 2328 733 
Q 2678 1069 2791 1631 
L 2816 1759 
z
" transform="scale(0.015625)"/>
      <path id="DejaVuSans-Oblique-74" d="M 2706 3500 
L 2619 3053 
L 1472 3053 
L 1100 1153 
Q 1081 1047 1072 975 
Q 1063 903 1063 863 
Q 1063 663 1183 572 
Q 1303 481 1569 481 
L 2150 481 
L 2053 0 
L 1503 0 
Q 991 0 739 200 
Q 488 400 488 806 
Q 488 878 497 964 
Q 506 1050 525 1153 
L 897 3053 
L 409 3053 
L 500 3500 
L 978 3500 
L 1172 4494 
L 1747 4494 
L 1556 3500 
L 2706 3500 
z
" transform="scale(0.015625)"/>
      <path id="DejaVuSans-Oblique-73" d="M 3200 3397 
L 3091 2853 
Q 2863 2978 2609 3040 
Q 2356 3103 2088 3103 
Q 1634 3103 1373 2948 
Q 1113 2794 1113 2528 
Q 1113 2219 1719 2053 
Q 1766 2041 1788 2034 
L 1972 1978 
Q 2547 1819 2739 1644 
Q 2931 1469 2931 1166 
Q 2931 609 2489 259 
Q 2047 -91 1331 -91 
Q 1053 -91 747 -37 
Q 441 16 72 128 
L 184 722 
Q 500 559 806 475 
Q 1113 391 1394 391 
Q 1816 391 2080 572 
Q 2344 753 2344 1031 
Q 2344 1331 1650 1516 
L 1591 1531 
L 1394 1581 
Q 956 1697 753 1886 
Q 550 2075 550 2369 
Q 550 2928 970 3256 
Q 1391 3584 2113 3584 
Q 2397 3584 2667 3537 
Q 2938 3491 3200 3397 
z
" transform="scale(0.015625)"/>
      <path id="DejaVuSans-Oblique-2014" d="M 356 1978 
L 6131 1978 
L 6044 1528 
L 269 1528 
L 356 1978 
z
" transform="scale(0.015625)"/>
      <path id="DejaVuSans-Oblique-6e" d="M 3566 2113 
L 3156 0 
L 2578 0 
L 2988 2091 
Q 3016 2238 3031 2350 
Q 3047 2463 3047 2528 
Q 3047 2791 2881 2937 
Q 2716 3084 2419 3084 
Q 1956 3084 1622 2776 
Q 1288 2469 1184 1941 
L 800 0 
L 225 0 
L 903 3500 
L 1478 3500 
L 1363 2950 
Q 1603 3253 1940 3418 
Q 2278 3584 2650 3584 
Q 3113 3584 3367 3334 
Q 3622 3084 3622 2631 
Q 3622 2519 3608 2391 
Q 3594 2263 3566 2113 
z
" transform="scale(0.015625)"/>
      <path id="DejaVuSans-Oblique-6f" d="M 1625 -91 
Q 1009 -91 651 289 
Q 294 669 294 1325 
Q 294 1706 417 2101 
Q 541 2497 738 2766 
Q 1047 3184 1428 3384 
Q 1809 3584 2291 3584 
Q 2888 3584 3255 3212 
Q 3622 2841 3622 2241 
Q 3622 1825 3500 1412 
Q 3378 1000 3181 728 
Q 2875 309 2494 109 
Q 2113 -91 1625 -91 
z
M 891 1344 
Q 891 869 1089 633 
Q 1288 397 1691 397 
Q 2269 397 2648 901 
Q 3028 1406 3028 2181 
Q 3028 2634 2825 2865 
Q 2622 3097 2228 3097 
Q 1903 3097 1650 2945 
Q 1397 2794 1197 2484 
Q 1050 2253 970 1956 
Q 891 1659 891 1344 
z
" transform="scale(0.015625)"/>
      <path id="DejaVuSans-Oblique-68" d="M 3566 2113 
L 3156 0 
L 2578 0 
L 2988 2091 
Q 3016 2238 3031 2350 
Q 3047 2463 3047 2528 
Q 3047 2791 2881 2937 
Q 2716 3084 2419 3084 
Q 1956 3084 1617 2771 
Q 1278 2459 1178 1941 
L 800 0 
L 225 0 
L 1172 4863 
L 1747 4863 
L 1375 2950 
Q 1594 3244 1934 3414 
Q 2275 3584 2650 3584 
Q 3113 3584 3367 3334 
Q 3622 3084 3622 2631 
Q 3622 2519 3608 2391 
Q 3594 2263 3566 2113 
z
" transform="scale(0.015625)"/>
      <path id="DejaVuSans-Oblique-75" d="M 428 1388 
L 838 3500 
L 1416 3500 
L 1006 1409 
Q 975 1256 961 1147 
Q 947 1038 947 966 
Q 947 700 1109 554 
Q 1272 409 1569 409 
Q 2031 409 2368 721 
Q 2706 1034 2809 1563 
L 3194 3500 
L 3769 3500 
L 3091 0 
L 2516 0 
L 2631 550 
Q 2388 244 2052 76 
Q 1716 -91 1338 -91 
Q 878 -91 622 161 
Q 366 413 366 863 
Q 366 956 381 1097 
Q 397 1238 428 1388 
z
" transform="scale(0.015625)"/>
      <path id="DejaVuSans-Oblique-67" d="M 3816 3500 
L 3219 434 
Q 3047 -456 2561 -893 
Q 2075 -1331 1253 -1331 
Q 950 -1331 690 -1286 
Q 431 -1241 206 -1147 
L 313 -588 
Q 525 -725 762 -790 
Q 1000 -856 1269 -856 
Q 1816 -856 2167 -557 
Q 2519 -259 2631 300 
L 2681 563 
Q 2441 288 2122 144 
Q 1803 0 1434 0 
Q 903 0 598 351 
Q 294 703 294 1319 
Q 294 1803 478 2267 
Q 663 2731 997 3091 
Q 1219 3328 1514 3456 
Q 1809 3584 2131 3584 
Q 2484 3584 2746 3420 
Q 3009 3256 3138 2956 
L 3238 3500 
L 3816 3500 
z
M 2950 2216 
Q 2950 2641 2750 2872 
Q 2550 3103 2181 3103 
Q 1953 3103 1747 3012 
Q 1541 2922 1394 2759 
Q 1156 2491 1023 2127 
Q 891 1763 891 1375 
Q 891 944 1092 712 
Q 1294 481 1672 481 
Q 2219 481 2584 976 
Q 2950 1472 2950 2216 
z
" transform="scale(0.015625)"/>
      <path id="DejaVuSans-Oblique-71" d="M 2669 525 
Q 2438 222 2123 65 
Q 1809 -91 1428 -91 
Q 897 -91 595 267 
Q 294 625 294 1253 
Q 294 1759 480 2231 
Q 666 2703 1013 3078 
Q 1238 3322 1530 3453 
Q 1822 3584 2144 3584 
Q 2531 3584 2781 3431 
Q 3031 3278 3144 2969 
L 3244 3494 
L 3822 3494 
L 2888 -1319 
L 2309 -1319 
L 2669 525 
z
M 891 1338 
Q 891 875 1084 633 
Q 1278 391 1644 391 
Q 2188 391 2572 911 
Q 2956 1431 2956 2175 
Q 2956 2625 2757 2864 
Q 2559 3103 2188 3103 
Q 1916 3103 1684 2976 
Q 1453 2850 1281 2606 
Q 1100 2350 995 2006 
Q 891 1663 891 1338 
z
" transform="scale(0.015625)"/>
      <path id="DejaVuSans-Oblique-64" d="M 2675 525 
Q 2444 222 2128 65 
Q 1813 -91 1428 -91 
Q 903 -91 598 267 
Q 294 625 294 1247 
Q 294 1766 478 2236 
Q 663 2706 1013 3078 
Q 1244 3325 1534 3454 
Q 1825 3584 2144 3584 
Q 2481 3584 2739 3421 
Q 2997 3259 3138 2956 
L 3513 4863 
L 4091 4863 
L 3144 0 
L 2566 0 
L 2675 525 
z
M 891 1350 
Q 891 897 1095 644 
Q 1300 391 1663 391 
Q 1931 391 2161 520 
Q 2391 650 2566 903 
Q 2750 1166 2856 1509 
Q 2963 1853 2963 2188 
Q 2963 2622 2758 2865 
Q 2553 3109 2194 3109 
Q 1922 3109 1687 2981 
Q 1453 2853 1288 2613 
Q 1106 2353 998 2009 
Q 891 1666 891 1350 
z
" transform="scale(0.015625)"/>
     </defs>
     <use xlink:href="#DejaVuSans-Oblique-43"/>
     <use xlink:href="#DejaVuSans-Oblique-79" transform="translate(69.824219 0)"/>
     <use xlink:href="#DejaVuSans-Oblique-63" transform="translate(129.003906 0)"/>
     <use xlink:href="#DejaVuSans-Oblique-6c" transform="translate(183.984375 0)"/>
     <use xlink:href="#DejaVuSans-Oblique-65" transform="translate(211.767578 0)"/>
     <use xlink:href="#DejaVuSans-Oblique-20" transform="translate(273.291016 0)"/>
     <use xlink:href="#DejaVuSans-Oblique-72" transform="translate(305.078125 0)"/>
     <use xlink:href="#DejaVuSans-Oblique-65" transform="translate(346.191406 0)"/>
     <use xlink:href="#DejaVuSans-Oblique-70" transform="translate(407.714844 0)"/>
     <use xlink:href="#DejaVuSans-Oblique-65" transform="translate(471.191406 0)"/>
     <use xlink:href="#DejaVuSans-Oblique-61" transform="translate(532.714844 0)"/>
     <use xlink:href="#DejaVuSans-Oblique-74" transform="translate(593.994141 0)"/>
     <use xlink:href="#DejaVuSans-Oblique-73" transform="translate(633.203125 0)"/>
     <use xlink:href="#DejaVuSans-Oblique-20" transform="translate(685.302734 0)"/>
     <use xlink:href="#DejaVuSans-Oblique-2014" transform="translate(717.089844 0)"/>
     <use xlink:href="#DejaVuSans-Oblique-20" transform="translate(817.089844 0)"/>
     <use xlink:href="#DejaVuSans-Oblique-6e" transform="translate(848.876953 0)"/>
     <use xlink:href="#DejaVuSans-Oblique-6f" transform="translate(912.255859 0)"/>
     <use xlink:href="#DejaVuSans-Oblique-20" transform="translate(973.4375 0)"/>
     <use xlink:href="#DejaVuSans-Oblique-73" transform="translate(1005.224609 0)"/>
     <use xlink:href="#DejaVuSans-Oblique-79" transform="translate(1057.324219 0)"/>
     <use xlink:href="#DejaVuSans-Oblique-6e" transform="translate(1116.503906 0)"/>
     <use xlink:href="#DejaVuSans-Oblique-63" transform="translate(1179.882812 0)"/>
     <use xlink:href="#DejaVuSans-Oblique-68" transform="translate(1234.863281 0)"/>
     <use xlink:href="#DejaVuSans-Oblique-72" transform="translate(1298.242188 0)"/>
     <use xlink:href="#DejaVuSans-Oblique-6f" transform="translate(1339.355469 0)"/>
     <use xlink:href="#DejaVuSans-Oblique-6e" transform="translate(1400.537109 0)"/>
     <use xlink:href="#DejaVuSans-Oblique-6f" transform="translate(1463.916016 0)"/>
     <use xlink:href="#DejaVuSans-Oblique-75" transform="translate(1525.097656 0)"/>
     <use xlink:href="#DejaVuSans-Oblique-73" transform="translate(1588.476562 0)"/>
     <use xlink:href="#DejaVuSans-Oblique-20" transform="translate(1640.576172 0)"/>
     <use xlink:href="#DejaVuSans-Oblique-6d" transform="translate(1672.363281 0)"/>
     <use xlink:href="#DejaVuSans-Oblique-65" transform="translate(1769.775391 0)"/>
     <use xlink:href="#DejaVuSans-Oblique-65" transform="translate(1831.298828 0)"/>
     <use xlink:href="#DejaVuSans-Oblique-74" transform="translate(1892.822266 0)"/>
     <use xlink:href="#DejaVuSans-Oblique-69" transform="translate(1932.03125 0)"/>
     <use xlink:href="#DejaVuSans-Oblique-6e" transform="translate(1959.814453 0)"/>
     <use xlink:href="#DejaVuSans-Oblique-67" transform="translate(2023.193359 0)"/>
     <use xlink:href="#DejaVuSans-Oblique-73" transform="translate(2086.669922 0)"/>
     <use xlink:href="#DejaVuSans-Oblique-20" transform="translate(2138.769531 0)"/>
     <use xlink:href="#DejaVuSans-Oblique-72" transform="translate(2170.556641 0)"/>
     <use xlink:href="#DejaVuSans-Oblique-65" transform="translate(2211.669922 0)"/>
     <use xlink:href="#DejaVuSans-Oblique-71" transform="translate(2273.193359 0)"/>
     <use xlink:href="#DejaVuSans-Oblique-75" transform="translate(2336.669922 0)"/>
     <use xlink:href="#DejaVuSans-Oblique-69" transform="translate(2400.048828 0)"/>
     <use xlink:href="#DejaVuSans-Oblique-72" transform="translate(2427.832031 0)"/>
     <use xlink:href="#DejaVuSans-Oblique-65" transform="translate(2468.945312 0)"/>
     <use xlink:href="#DejaVuSans-Oblique-64" transform="translate(2530.46875 0)"/>
    </g>
   </g>
   <g id="patch_5">
    <path d="M 320.4 128.067924 
L 311.004 122.696017 
L 311.004 133.439832 
z
" clip-path="url(#p6582fc869f)" style="fill: #4a7fb5; stroke: #4a7fb5; stroke-width: 0.5; stroke-linejoin: miter"/>
   </g>
   <g id="patch_6">
    <path d="M 503.1 195.216771 
L 493.704 189.844864 
L 493.704 200.588679 
z
" clip-path="url(#p6582fc869f)" style="fill: #7fb174; stroke: #7fb174; stroke-width: 0.5; stroke-linejoin: miter"/>
   </g>
   <g id="patch_7">
    <path d="M 320.4 262.365618 
L 329.796 256.99371 
L 329.796 267.737526 
z
" clip-path="url(#p6582fc869f)" style="fill: #7fb174; stroke: #7fb174; stroke-width: 0.5; stroke-linejoin: miter"/>
   </g>
   <g id="patch_8">
    <path d="M 137.7 329.514465 
L 147.096 324.142557 
L 147.096 334.886373 
z
" clip-path="url(#p6582fc869f)" style="fill: #4a7fb5; stroke: #4a7fb5; stroke-width: 0.5; stroke-linejoin: miter"/>
   </g>
   <g id="patch_9">
    <path d="M 320.4 396.663312 
L 311.004 391.291404 
L 311.004 402.03522 
z
" clip-path="url(#p6582fc869f)" style="fill: #4a7fb5; stroke: #4a7fb5; stroke-width: 0.5; stroke-linejoin: miter"/>
   </g>
   <g id="patch_10">
    <path d="M 35.91 441.42921 
L 30.69 432.47603 
L 41.13 432.47603 
z
" clip-path="url(#p6582fc869f)" style="fill: #666666; stroke: #666666; stroke-width: 0.5; stroke-linejoin: miter"/>
   </g>
   <g id="patch_11">
    <path d="M 304.74 497.386582 
L 297.954 493.357651 
L 297.954 501.415513 
z
" clip-path="url(#p6582fc869f)" style="fill: #666666; stroke: #666666; stroke-width: 0.5; stroke-linejoin: miter"/>
   </g>
   <g id="patch_12">
    <path d="M 398.7 497.386582 
L 391.914 493.357651 
L 391.914 501.415513 
z
" clip-path="url(#p6582fc869f)" style="fill: #666666; stroke: #666666; stroke-width: 0.5; stroke-linejoin: miter"/>
   </g>
  </g>
 </g>
 <defs>
  <clipPath id="p6582fc869f">
   <rect x="7.2" y="7.2" width="626.4" height="514.807826"/>
  </clipPath>
 </defs>
</svg>
